<svg width="48" height="222" viewBox="0 0 48 222" fill="none" xmlns="http://www.w3.org/2000/svg">
<path d="M46.8691 222L29.5945 220.741L39.3225 206.41L46.8691 222ZM47.8905 3.09858C46.6539 4.24816 45.4447 5.42302 44.2625 6.622L42.1263 4.51573C43.3387 3.2861 44.5791 2.08092 45.8478 0.901421L47.8905 3.09858ZM37.4797 14.1125C35.3232 16.7042 33.2743 19.3838 31.3316 22.1422L28.8788 20.4148C30.8666 17.5924 32.9643 14.8487 35.1736 12.1936L37.4797 14.1125ZM25.827 30.6333C24.1017 33.5282 22.4804 36.4919 20.9618 39.5151L18.281 38.1684C19.8311 35.0827 21.4868 32.0559 23.2499 29.0975L25.827 30.6333ZM16.7255 48.7222C15.4191 51.8327 14.2127 54.9926 13.1048 58.1927L10.2699 57.2112C11.3983 53.9519 12.6277 50.7319 13.9595 47.5606L16.7255 48.7222ZM10.0833 67.8757C9.17456 71.132 8.36219 74.4188 7.64476 77.7271L4.71291 77.0913C5.44252 73.7269 6.26891 70.3831 7.19366 67.0693L10.0833 67.8757ZM5.7762 87.7051C5.24641 91.0523 4.81048 94.4116 4.46697 97.7739L1.48251 97.469C1.83155 94.0524 2.27457 90.6384 2.81309 87.2361L5.7762 87.7051ZM3.71029 107.903C3.5493 111.298 3.48124 114.686 3.50456 118.057L0.504637 118.078C0.480932 114.652 0.550094 111.21 0.713662 107.761L3.71029 107.903ZM3.85257 128.202C4.06312 131.603 4.36738 134.977 4.76368 138.313L1.78462 138.667C1.38161 135.274 1.07231 131.844 0.858306 128.387L3.85257 128.202ZM6.25487 148.358C6.85628 151.72 7.55421 155.031 8.34675 158.28L5.43222 158.991C4.62459 155.68 3.91387 152.308 3.30175 148.887L6.25487 148.358ZM11.0719 168.037C12.1057 171.305 13.2417 174.491 14.4774 177.584L11.6917 178.697C10.4275 175.534 9.26688 172.278 8.21157 168.942L11.0719 168.037ZM18.5993 186.801C20.1303 189.872 21.7712 192.82 23.519 195.63L20.9715 197.215C19.1716 194.32 17.4852 191.29 15.9144 188.139L18.5993 186.801ZM29.2714 203.878C31.378 206.569 33.6032 209.082 35.9434 211.401L33.8318 213.532C31.3972 211.12 29.0889 208.511 26.9093 205.728L29.2714 203.878Z" fill="white"/>
</svg>
