<svg width="49" height="222" viewBox="0 0 49 222" fill="none" xmlns="http://www.w3.org/2000/svg">
<path d="M2 222L19.2747 220.741L9.54665 206.41L2 222ZM0.978665 3.09858C2.21519 4.24816 3.42444 5.42302 4.6066 6.622L6.74285 4.51573C5.53048 3.2861 4.29004 2.08092 3.02133 0.901421L0.978665 3.09858ZM11.3895 14.1125C13.546 16.7042 15.5949 19.3838 17.5376 22.1422L19.9903 20.4148C18.0025 17.5924 15.9048 14.8487 13.6955 12.1936L11.3895 14.1125ZM23.0422 30.6333C24.7674 33.5282 26.3887 36.4919 27.9074 39.5151L30.5881 38.1684C29.0381 35.0827 27.3823 32.0559 25.6192 29.0975L23.0422 30.6333ZM32.1437 48.7222C33.45 51.8327 34.6564 54.9926 35.7643 58.1927L38.5992 57.2112C37.4708 53.9519 36.2415 50.7319 34.9097 47.5606L32.1437 48.7222ZM38.7859 67.8757C39.6946 71.132 40.5069 74.4188 41.2244 77.7271L44.1562 77.0913C43.4266 73.7269 42.6002 70.3831 41.6755 67.0693L38.7859 67.8757ZM43.0929 87.7051C43.6227 91.0523 44.0587 94.4116 44.4022 97.7739L47.3866 97.469C47.0376 94.0524 46.5946 90.6384 46.0561 87.2361L43.0929 87.7051ZM45.1588 107.903C45.3198 111.298 45.3879 114.686 45.3646 118.057L48.3645 118.078C48.3882 114.652 48.319 111.21 48.1555 107.761L45.1588 107.903ZM45.0166 128.202C44.806 131.603 44.5018 134.977 44.1055 138.313L47.0845 138.667C47.4875 135.274 47.7968 131.844 48.0108 128.387L45.0166 128.202ZM42.6143 148.358C42.0129 151.72 41.3149 155.031 40.5224 158.28L43.4369 158.991C44.2445 155.68 44.9553 152.308 45.5674 148.887L42.6143 148.358ZM37.7973 168.037C36.7634 171.305 35.6274 174.491 34.3917 177.584L37.1775 178.697C38.4416 175.534 39.6023 172.278 40.6576 168.942L37.7973 168.037ZM30.2699 186.801C28.7389 189.872 27.0979 192.82 25.3501 195.63L27.8976 197.215C29.6976 194.32 31.384 191.29 32.9547 188.139L30.2699 186.801ZM19.5978 203.878C17.4912 206.569 15.2659 209.082 12.9258 211.401L15.0373 213.532C17.4719 211.12 19.7803 208.511 21.9598 205.728L19.5978 203.878Z" fill="white"/>
</svg>
