<svg width="89" height="95" viewBox="0 0 89 95" preserveAspectRatio="none" fill="none" xmlns="http://www.w3.org/2000/svg"><path d="M88.569 88.8238C88.9928 88.4697 89.0493 87.8391 88.6952 87.4152L82.9245 80.5088C82.5704 80.085 81.9397 80.0285 81.5159 80.3826C81.0921 80.7367 81.0356 81.3674 81.3897 81.7912L86.5192 87.9302L80.3801 93.0597C79.9563 93.4139 79.8998 94.0445 80.254 94.4683C80.6081 94.8921 81.2387 94.9486 81.6625 94.5945L88.569 88.8238ZM1.75832 0.708185C1.64632 1.57101 1.54309 2.42598 1.44858 3.27314L3.43625 3.49489C3.52941 2.65984 3.63119 1.81678 3.74168 0.965643L1.75832 0.708185ZM0.979137 8.34995C0.853077 10.083 0.765711 11.7816 0.7164 13.4462L2.71552 13.5054C2.76396 11.8704 2.84981 10.2005 2.97387 8.49505L0.979137 8.34995ZM0.685781 18.5562C0.718092 20.2997 0.795107 22.0037 0.916002 23.6688L2.91075 23.524C2.79255 21.8959 2.71711 20.2279 2.68544 18.5191L0.685781 18.5562ZM1.4384 28.7671C1.6698 30.4987 1.95255 32.185 2.28559 33.827L4.24568 33.4295C3.92183 31.8327 3.64642 30.1907 3.42078 28.5022L1.4384 28.7671ZM3.4894 38.8177C3.96191 40.496 4.49194 42.1235 5.07807 43.7016L6.95293 43.0052C6.38606 41.479 5.87272 39.903 5.41455 38.2757L3.4894 38.8177ZM7.07811 48.4471C7.82411 50.0195 8.63181 51.5369 9.49938 53.0011L11.22 51.9815C10.3839 50.5705 9.60497 49.1072 8.88505 47.5898L7.07811 48.4471ZM12.3318 57.3069C13.3465 58.7017 14.4221 60.0414 15.5563 61.3279L17.0565 60.0052C15.9631 58.765 14.9267 57.474 13.9491 56.1303L12.3318 57.3069ZM19.1362 65.0327C20.378 66.2072 21.6753 67.3307 23.0259 68.4052L24.271 66.8401C22.9637 65.8001 21.7096 64.7138 20.5105 63.5796L19.1362 65.0327ZM27.1778 71.4446C28.5825 72.3912 30.0348 73.2936 31.5329 74.1538L32.5288 72.4194C31.0705 71.582 29.6588 70.7048 28.2954 69.786L27.1778 71.4446ZM36.06 76.5593C37.575 77.3038 39.13 78.0113 40.7234 78.6835L41.5008 76.8408C39.9411 76.1828 38.421 75.4911 36.9421 74.7643L36.06 76.5593ZM45.493 80.5507C47.0726 81.1239 48.6855 81.6667 50.3301 82.1805L50.9265 80.2716C49.3093 79.7663 47.7251 79.233 46.1751 78.6706L45.493 80.5507ZM55.2286 83.6017C56.8501 84.0377 58.4993 84.4487 60.175 84.8359L60.6252 82.8872C58.9716 82.5052 57.3455 82.0999 55.748 81.6703L55.2286 83.6017ZM65.1576 85.9024C66.8046 86.2282 68.4747 86.5333 70.1671 86.8186L70.4996 84.8465C68.825 84.5641 67.1734 84.2624 65.5457 83.9404L65.1576 85.9024ZM75.1966 87.6001C76.8588 87.8373 78.5405 88.0573 80.2409 88.2607L80.4785 86.2749C78.7925 86.0731 77.1258 85.8552 75.4792 85.6202L75.1966 87.6001ZM85.2959 88.8127C86.1393 88.8962 86.9869 88.9761 87.8386 89.0524L88.017 87.0604C87.1714 86.9847 86.3301 86.9054 85.4931 86.8224L85.2959 88.8127Z" fill="white"/></svg>
