<svg width="47" height="34" viewBox="0 0 47 34" fill="none" xmlns="http://www.w3.org/2000/svg">
<path d="M46.6739 23.3799C46.6739 26.1115 45.7142 28.437 43.7947 30.3566C41.8013 32.3499 39.4019 33.3466 36.5965 33.3466C33.791 33.3466 31.4286 32.3499 29.5091 30.3566C27.5157 28.437 26.519 26.1115 26.519 23.3799C26.519 21.6818 26.9989 19.9838 27.9587 18.2858L38.0361 0.899414H42.798L35.4891 13.4132C35.7106 13.3393 36.0797 13.3024 36.5965 13.3024C39.3281 13.3024 41.6906 14.2991 43.6839 16.2924C45.6773 18.2858 46.6739 20.6483 46.6739 23.3799Z" fill="white"/>
<path d="M21.0172 23.3799C21.0172 26.1115 20.0574 28.437 18.1379 30.3566C16.1446 32.3499 13.7452 33.3466 10.9398 33.3466C8.13431 33.3466 5.77183 32.3499 3.85232 30.3566C1.85898 28.437 0.862305 26.1115 0.862305 23.3799C0.862305 21.6818 1.34218 19.9838 2.30194 18.2858L12.3794 0.899414H17.1413L9.83234 13.4132C10.0538 13.3393 10.423 13.3024 10.9398 13.3024C13.6714 13.3024 16.0338 14.2991 18.0272 16.2924C20.0205 18.2858 21.0172 20.6483 21.0172 23.3799Z" fill="white"/>
</svg>
