<svg xmlns="http://www.w3.org/2000/svg" width="25.969" height="26" viewBox="0 0 25.969 26">
  <defs>
    <style>
      .cls-1 {
        fill-rule: evenodd;
      }
    </style>
  </defs>
  <path id="phone" class="cls-1" d="M299.438,219.77c-1.773-1.951-.4-3.093.41-4.252a2,2,0,0,0,0-2.468c-0.28-.447-2.8-4.872-3.006-5.212a1.364,1.364,0,0,0-1.366-.823c-2.565.408-4.891,3.285-4.372,7.406,0.379,3.012,6.81,10.127,7.611,10.932s7.715,7.474,10.911,7.66c4.131,0.239,6.972-1.815,7.378-4.389a1.367,1.367,0,0,0-.82-1.371c-0.339-.2-4.747-2.737-5.192-3.018a1.978,1.978,0,0,0-2.459,0c-1.155.814-2.258,2.154-4.236,0.412A62.776,62.776,0,0,1,299.438,219.77Z" transform="translate(-291.031 -207)"/>
</svg>
