<svg xmlns="http://www.w3.org/2000/svg" width="30.406" height="29" viewBox="0 0 30.406 29">
  <defs>
    <style>
      .cls-1 {
        fill: #fff;
        fill-rule: evenodd;
      }
    </style>
  </defs>
  <path id="close" class="cls-1" d="M30.356,5a5.885,5.885,0,0,1-.6,1.254,14.482,14.482,0,0,1-1.711,1.771l-3,3.006L21.7,14.391l0.262,0.259,7.408,7.743a4.027,4.027,0,0,1,.2,4.877,5.045,5.045,0,0,1-5.757,1.393A6.048,6.048,0,0,1,21.62,26.85L20.512,25.7l-5.234-5.454-0.745.716L12.32,23.188l-3.5,3.5A7.532,7.532,0,0,1,6.26,28.7a4.823,4.823,0,0,1-5.7-1.632A4.106,4.106,0,0,1,.7,22.75C1.263,21.969,2.1,21.435,2.7,20.7L9,14.351,3.019,8.081a19.52,19.52,0,0,1-1.953-2.17,4.006,4.006,0,0,1,.906-4.837A5.4,5.4,0,0,1,7.589.557a8.631,8.631,0,0,1,2.134,2.03L15.44,8.519l0.584-.557L18.2,5.772l3.5-3.5A7.071,7.071,0,0,1,24.156.318,5.439,5.439,0,0,1,28,.378a4.1,4.1,0,0,1,2.194,2.09A5.657,5.657,0,0,1,30.356,5ZM4.952,2.488l-0.684.119A1.577,1.577,0,0,0,3.14,4.339a2.581,2.581,0,0,0,.745,1L5.737,7.265l6.8,7.106s-2.588,2.6-8.052,8.1c-0.745.737-2.734,2.08-1.61,3.483a2.574,2.574,0,0,0,2.818.239l0.745-.677L15.3,16.64s2.756,2.853,9.018,9.395a2.477,2.477,0,0,0,3.18-.219c0.846-1.084-.179-1.791-0.684-2.408l-0.845-.916-7.79-8.121,7.851-7.9c0.688-.68,2.673-2.053,1.61-3.384a2.567,2.567,0,0,0-2.838-.3l-0.946.876L15.4,12.122,8.475,4.936,7.025,3.423a2.933,2.933,0,0,0-.644-0.657A2.84,2.84,0,0,0,4.952,2.488Z"/>
</svg>
