<svg xmlns="http://www.w3.org/2000/svg" xmlns:xlink="http://www.w3.org/1999/xlink"><symbol id="icon-arr-down" viewBox="0 0 14 12"><path d="M7 12L.072.75h13.856L7 12z"/></symbol><symbol id="icon-arr-more" viewBox="0 0 18 50"><path d="M9 50L.34 35h17.32L9 50zm1.5-50v36.5h-3V0h3z"/></symbol><symbol id="icon-arr-up" viewBox="0 0 14 12"><path d="M7 0l6.928 11.25H.072L7 0z"/></symbol><symbol id="icon-checked" viewBox="0 0 15 11"><path d="M5.657 10.142L0 4.485l1.414-1.414 4.243 4.243L12.728.243l1.414 1.414-8.485 8.485z"/></symbol><symbol id="icon-close-filled" viewBox="0 0 26 26"><path fill-rule="evenodd" clip-rule="evenodd" d="M23.607 25.021L13 14.415 2.393 25.02.98 23.607l10.607-10.606L.979 2.394 2.393.98 13 11.586 23.607.98l1.414 1.414L14.414 13l10.607 10.606-1.414 1.414z"/></symbol><symbol id="icon-close" viewBox="0 0 30.406 29"><path d="M30.356 5a5.885 5.885 0 01-.6 1.254 14.482 14.482 0 01-1.711 1.771l-3 3.006-3.345 3.36.262.259 7.408 7.743a4.027 4.027 0 01.2 4.877 5.045 5.045 0 01-5.757 1.393 6.048 6.048 0 01-2.193-1.813l-1.108-1.15-5.234-5.454-.745.716-2.213 2.226-3.5 3.5A7.532 7.532 0 016.26 28.7a4.823 4.823 0 01-5.7-1.632A4.106 4.106 0 01.7 22.75c.563-.781 1.4-1.315 2-2.05L9 14.351l-5.981-6.27a19.52 19.52 0 01-1.953-2.17 4.006 4.006 0 01.906-4.837A5.4 5.4 0 017.589.557a8.631 8.631 0 012.134 2.03l5.717 5.932.584-.557 2.176-2.19 3.5-3.5A7.071 7.071 0 0124.156.318 5.439 5.439 0 0128 .378a4.1 4.1 0 012.194 2.09A5.657 5.657 0 0130.356 5zM4.952 2.488l-.684.119A1.577 1.577 0 003.14 4.339a2.581 2.581 0 00.745 1l1.852 1.926 6.8 7.106s-2.588 2.6-8.052 8.1c-.745.737-2.734 2.08-1.61 3.483a2.574 2.574 0 002.818.239l.745-.677L15.3 16.64s2.756 2.853 9.018 9.395a2.477 2.477 0 003.18-.219c.846-1.084-.179-1.791-.684-2.408l-.845-.916-7.79-8.121 7.851-7.9c.688-.68 2.673-2.053 1.61-3.384a2.567 2.567 0 00-2.838-.3l-.946.876-8.456 8.459-6.925-7.186-1.45-1.513a2.933 2.933 0 00-.644-.657 2.84 2.84 0 00-1.429-.278z" fill-rule="evenodd"/></symbol><symbol id="icon-dash" viewBox="0 0 20 1"><path d="M0 0h10v1H0z"/></symbol><symbol id="icon-mail" viewBox="0 0 34 25"><path d="M.014-.015h34v1.759s-12.107 11.23-14.022 12.9c-2.19 1.914-3.93 1.658-5.762 0C12.971 13.505.016 1.936.016 1.936V-.019zm0 3.714l10.372 9.189L.014 21.1V3.7zm34 0l-10.18 9.189 10.18 8.407V3.7zm0 21.311v-2.151l-11.141-8.993s-1.044.9-2.5 2.15c-2.055 1.775-4.342 1.954-6.914-.391a176.314 176.314 0 01-2.113-1.955L.013 22.859v2.151h34z" fill-rule="evenodd"/></symbol><symbol id="icon-menu" viewBox="0 0 21 13"><path d="M0 0h21v2.308H0zM0 5.308h21v2.308H0zM0 10.615h21v2.308H0z"/></symbol><symbol id="icon-minus" viewBox="0 0 32 32"><path d="M32 17H0v-2h32v2z" fill-rule="evenodd"/></symbol><symbol id="icon-phone" viewBox="0 0 25.969 26"><path d="M8.407 12.77c-1.773-1.951-.4-3.093.41-4.252a2 2 0 000-2.468c-.28-.447-2.8-4.872-3.006-5.212A1.364 1.364 0 004.445.015C1.88.423-.446 3.3.073 7.421c.379 3.012 6.81 10.127 7.611 10.932s7.715 7.474 10.911 7.66c4.131.239 6.972-1.815 7.378-4.389a1.367 1.367 0 00-.82-1.371c-.339-.2-4.747-2.737-5.192-3.018a1.978 1.978 0 00-2.459 0c-1.155.814-2.258 2.154-4.236.412a62.776 62.776 0 01-4.859-4.877z" fill-rule="evenodd"/></symbol><symbol id="icon-play" viewBox="0 0 9 9"><path d="M8.77 4.713L.373 8.955V.47L8.77 4.713z"/></symbol><symbol id="icon-plus" viewBox="0 0 32 32"><path d="M32 17H17v15h-2V17H0v-2h15V0h2v15h15v2z" fill-rule="evenodd"/></symbol><symbol id="icon-quote" viewBox="0 0 47 34"><path d="M46.674 23.38c0 2.732-.96 5.057-2.88 6.977-1.993 1.993-4.392 2.99-7.197 2.99-2.806 0-5.168-.997-7.088-2.99-1.993-1.92-2.99-4.245-2.99-6.977 0-1.698.48-3.396 1.44-5.094L38.036.899h4.762l-7.309 12.514c.222-.074.59-.11 1.108-.11 2.731 0 5.094.996 7.087 2.99 1.993 1.993 2.99 4.355 2.99 7.087zM21.017 23.38c0 2.732-.96 5.057-2.88 6.977-1.992 1.993-4.392 2.99-7.197 2.99-2.806 0-5.168-.997-7.088-2.99-1.993-1.92-2.99-4.245-2.99-6.977 0-1.698.48-3.396 1.44-5.094L12.379.899h4.762L9.832 13.413c.222-.074.591-.11 1.108-.11 2.731 0 5.094.996 7.087 2.99 1.993 1.993 2.99 4.355 2.99 7.087z"/></symbol><symbol id="icon-spot" viewBox="0 0 107 99"><path fill-rule="evenodd" clip-rule="evenodd" d="M43.49 0C72.53 0 107 9.608 107 38.557 107.001 72.74 77.781 99 43.49 99 14.35 99 0 67.605 0 38.557.001 15.899 20.761 0 43.49 0z"/></symbol> <view id="icon-arr-down-view-dark" viewBox="0 0 14 12"/><view id="icon-arr-down-view-white" viewBox="0 22 14 12"/><view id="icon-arr-more-view-dark" viewBox="0 44 18 50"/><view id="icon-arr-more-view-white" viewBox="0 104 18 50"/><view id="icon-arr-up-view-dark" viewBox="0 164 14 12"/><view id="icon-arr-up-view-white" viewBox="0 186 14 12"/><view id="icon-checked-view-dark" viewBox="0 208 15 11"/><view id="icon-checked-view-white" viewBox="0 229 15 11"/><view id="icon-close-filled-view-dark" viewBox="0 250 26 26"/><view id="icon-close-filled-view-white" viewBox="0 286 26 26"/><view id="icon-close-view-dark" viewBox="0 322 30.406 29"/><view id="icon-close-view-white" viewBox="0 361 30.406 29"/><view id="icon-dash-view-dark" viewBox="0 400 20 1"/><view id="icon-dash-view-white" viewBox="0 411 20 1"/><view id="icon-mail-view-dark" viewBox="0 422 34 25"/><view id="icon-mail-view-white" viewBox="0 457 34 25"/><view id="icon-menu-view-dark" viewBox="0 492 21 13"/><view id="icon-menu-view-white" viewBox="0 515 21 13"/><view id="icon-minus-view-dark" viewBox="0 538 32 32"/><view id="icon-minus-view-white" viewBox="0 580 32 32"/><view id="icon-phone-view-dark" viewBox="0 622 25.969 26"/><view id="icon-phone-view-white" viewBox="0 658 25.969 26"/><view id="icon-play-view-dark" viewBox="0 694 9 9"/><view id="icon-play-view-white" viewBox="0 713 9 9"/><view id="icon-plus-view-dark" viewBox="0 732 32 32"/><view id="icon-plus-view-white" viewBox="0 774 32 32"/><view id="icon-quote-view-dark" viewBox="0 816 47 34"/><view id="icon-quote-view-white" viewBox="0 860 47 34"/><view id="icon-spot-view-dark" viewBox="0 904 107 99"/><view id="icon-spot-view-white" viewBox="0 1013 107 99"/> <use xlink:href="#icon-arr-down" x="0" y="0" width="14" height="12" style="fill:#000000"/><use xlink:href="#icon-arr-down" x="0" y="22" width="14" height="12" style="fill:#ffffff"/><use xlink:href="#icon-arr-more" x="0" y="44" width="18" height="50" style="fill:#000000"/><use xlink:href="#icon-arr-more" x="0" y="104" width="18" height="50" style="fill:#ffffff"/><use xlink:href="#icon-arr-up" x="0" y="164" width="14" height="12" style="fill:#000000"/><use xlink:href="#icon-arr-up" x="0" y="186" width="14" height="12" style="fill:#ffffff"/><use xlink:href="#icon-checked" x="0" y="208" width="15" height="11" style="fill:#000000"/><use xlink:href="#icon-checked" x="0" y="229" width="15" height="11" style="fill:#ffffff"/><use xlink:href="#icon-close-filled" x="0" y="250" width="26" height="26" style="fill:#000000"/><use xlink:href="#icon-close-filled" x="0" y="286" width="26" height="26" style="fill:#ffffff"/><use xlink:href="#icon-close" x="0" y="322" width="30.406" height="29" style="fill:#000000"/><use xlink:href="#icon-close" x="0" y="361" width="30.406" height="29" style="fill:#ffffff"/><use xlink:href="#icon-dash" x="0" y="400" width="20" height="1" style="fill:#000000"/><use xlink:href="#icon-dash" x="0" y="411" width="20" height="1" style="fill:#ffffff"/><use xlink:href="#icon-mail" x="0" y="422" width="34" height="25" style="fill:#000000"/><use xlink:href="#icon-mail" x="0" y="457" width="34" height="25" style="fill:#ffffff"/><use xlink:href="#icon-menu" x="0" y="492" width="21" height="13" style="fill:#000000"/><use xlink:href="#icon-menu" x="0" y="515" width="21" height="13" style="fill:#ffffff"/><use xlink:href="#icon-minus" x="0" y="538" width="32" height="32" style="fill:#000000"/><use xlink:href="#icon-minus" x="0" y="580" width="32" height="32" style="fill:#ffffff"/><use xlink:href="#icon-phone" x="0" y="622" width="25.969" height="26" style="fill:#000000"/><use xlink:href="#icon-phone" x="0" y="658" width="25.969" height="26" style="fill:#ffffff"/><use xlink:href="#icon-play" x="0" y="694" width="9" height="9" style="fill:#000000"/><use xlink:href="#icon-play" x="0" y="713" width="9" height="9" style="fill:#ffffff"/><use xlink:href="#icon-plus" x="0" y="732" width="32" height="32" style="fill:#000000"/><use xlink:href="#icon-plus" x="0" y="774" width="32" height="32" style="fill:#ffffff"/><use xlink:href="#icon-quote" x="0" y="816" width="47" height="34" style="fill:#000000"/><use xlink:href="#icon-quote" x="0" y="860" width="47" height="34" style="fill:#ffffff"/><use xlink:href="#icon-spot" x="0" y="904" width="107" height="99" style="fill:#000000"/><use xlink:href="#icon-spot" x="0" y="1013" width="107" height="99" style="fill:#ffffff"/></svg>