<svg xmlns="http://www.w3.org/2000/svg" xmlns:xlink="http://www.w3.org/1999/xlink"><symbol id="icon-close" viewBox="0 0 30.406 29"><path d="M30.356 5a5.885 5.885 0 01-.6 1.254 14.482 14.482 0 01-1.711 1.771l-3 3.006-3.345 3.36.262.259 7.408 7.743a4.027 4.027 0 01.2 4.877 5.045 5.045 0 01-5.757 1.393 6.048 6.048 0 01-2.193-1.813l-1.108-1.15-5.234-5.454-.745.716-2.213 2.226-3.5 3.5A7.532 7.532 0 016.26 28.7a4.823 4.823 0 01-5.7-1.632A4.106 4.106 0 01.7 22.75c.563-.781 1.4-1.315 2-2.05L9 14.351l-5.981-6.27a19.52 19.52 0 01-1.953-2.17 4.006 4.006 0 01.906-4.837A5.4 5.4 0 017.589.557a8.631 8.631 0 012.134 2.03l5.717 5.932.584-.557 2.176-2.19 3.5-3.5A7.071 7.071 0 0124.156.318 5.439 5.439 0 0128 .378a4.1 4.1 0 012.194 2.09A5.657 5.657 0 0130.356 5zM4.952 2.488l-.684.119A1.577 1.577 0 003.14 4.339a2.581 2.581 0 00.745 1l1.852 1.926 6.8 7.106s-2.588 2.6-8.052 8.1c-.745.737-2.734 2.08-1.61 3.483a2.574 2.574 0 002.818.239l.745-.677L15.3 16.64s2.756 2.853 9.018 9.395a2.477 2.477 0 003.18-.219c.846-1.084-.179-1.791-.684-2.408l-.845-.916-7.79-8.121 7.851-7.9c.688-.68 2.673-2.053 1.61-3.384a2.567 2.567 0 00-2.838-.3l-.946.876-8.456 8.459-6.925-7.186-1.45-1.513a2.933 2.933 0 00-.644-.657 2.84 2.84 0 00-1.429-.278z" fill-rule="evenodd"/></symbol><symbol id="icon-menu" viewBox="0 0 21 13"><path d="M0 0h21v2.308H0zM0 5.308h21v2.308H0zM0 10.615h21v2.308H0z"/></symbol><symbol id="icon-quote" viewBox="0 0 47 34"><path d="M46.674 23.38c0 2.732-.96 5.057-2.88 6.977-1.993 1.993-4.392 2.99-7.197 2.99-2.806 0-5.168-.997-7.088-2.99-1.993-1.92-2.99-4.245-2.99-6.977 0-1.698.48-3.396 1.44-5.094L38.036.899h4.762l-7.309 12.514c.222-.074.59-.11 1.108-.11 2.731 0 5.094.996 7.087 2.99 1.993 1.993 2.99 4.355 2.99 7.087zM21.017 23.38c0 2.732-.96 5.057-2.88 6.977-1.992 1.993-4.392 2.99-7.197 2.99-2.806 0-5.168-.997-7.088-2.99-1.993-1.92-2.99-4.245-2.99-6.977 0-1.698.48-3.396 1.44-5.094L12.379.899h4.762L9.832 13.413c.222-.074.591-.11 1.108-.11 2.731 0 5.094.996 7.087 2.99 1.993 1.993 2.99 4.355 2.99 7.087z"/></symbol> <view id="icon-close-view-blue" viewBox="0 0 30.406 29"/><view id="icon-close-view-dark" viewBox="0 39 30.406 29"/><view id="icon-close-view-white" viewBox="0 78 30.406 29"/><view id="icon-menu-view-blue" viewBox="0 117 21 13"/><view id="icon-menu-view-dark" viewBox="0 140 21 13"/><view id="icon-menu-view-white" viewBox="0 163 21 13"/><view id="icon-quote-view-blue" viewBox="0 186 47 34"/><view id="icon-quote-view-dark" viewBox="0 230 47 34"/><view id="icon-quote-view-white" viewBox="0 274 47 34"/> <use xlink:href="#icon-close" x="0" y="0" width="30.406" height="29" style="fill:#638bf5"/><use xlink:href="#icon-close" x="0" y="39" width="30.406" height="29" style="fill:#46557b"/><use xlink:href="#icon-close" x="0" y="78" width="30.406" height="29" style="fill:#ffffff"/><use xlink:href="#icon-menu" x="0" y="117" width="21" height="13" style="fill:#638bf5"/><use xlink:href="#icon-menu" x="0" y="140" width="21" height="13" style="fill:#46557b"/><use xlink:href="#icon-menu" x="0" y="163" width="21" height="13" style="fill:#ffffff"/><use xlink:href="#icon-quote" x="0" y="186" width="47" height="34" style="fill:#638bf5"/><use xlink:href="#icon-quote" x="0" y="230" width="47" height="34" style="fill:#46557b"/><use xlink:href="#icon-quote" x="0" y="274" width="47" height="34" style="fill:#ffffff"/></svg>