<svg width="1043" height="437" viewBox="0 0 1043 437" fill="none" xmlns="http://www.w3.org/2000/svg">
<g clip-path="url(#clip0_2_846)">
<g filter="url(#filter0_d_2_846)">
<circle cx="217.5" cy="184.5" r="92.5" fill="#48258F"/>
<circle cx="217.5" cy="184.5" r="92.5" fill="url(#paint0_radial_2_846)"/>
<circle cx="217.5" cy="184.5" r="92.5" fill="url(#paint1_radial_2_846)"/>
<circle cx="217.5" cy="184.5" r="92.5" fill="url(#paint2_radial_2_846)"/>
<circle cx="217.5" cy="184.5" r="92.5" fill="url(#paint3_radial_2_846)"/>
<path fill-rule="evenodd" clip-rule="evenodd" d="M217.5 287C274.109 287 320 241.109 320 184.5C320 127.891 274.109 82 217.5 82C160.891 82 115 127.891 115 184.5C115 241.109 160.891 287 217.5 287ZM217.499 282.751C271.762 282.751 315.751 238.762 315.751 184.499C315.751 130.237 271.762 86.248 217.499 86.248C163.237 86.248 119.248 130.237 119.248 184.499C119.248 238.762 163.237 282.751 217.499 282.751Z" fill="#48258F"/>
<path fill-rule="evenodd" clip-rule="evenodd" d="M217.5 287C274.109 287 320 241.109 320 184.5C320 127.891 274.109 82 217.5 82C160.891 82 115 127.891 115 184.5C115 241.109 160.891 287 217.5 287ZM217.499 282.751C271.762 282.751 315.751 238.762 315.751 184.499C315.751 130.237 271.762 86.248 217.499 86.248C163.237 86.248 119.248 130.237 119.248 184.499C119.248 238.762 163.237 282.751 217.499 282.751Z" fill="url(#paint4_radial_2_846)"/>
<path fill-rule="evenodd" clip-rule="evenodd" d="M217.5 287C274.109 287 320 241.109 320 184.5C320 127.891 274.109 82 217.5 82C160.891 82 115 127.891 115 184.5C115 241.109 160.891 287 217.5 287ZM217.499 282.751C271.762 282.751 315.751 238.762 315.751 184.499C315.751 130.237 271.762 86.248 217.499 86.248C163.237 86.248 119.248 130.237 119.248 184.499C119.248 238.762 163.237 282.751 217.499 282.751Z" fill="url(#paint5_radial_2_846)"/>
<path fill-rule="evenodd" clip-rule="evenodd" d="M217.5 287C274.109 287 320 241.109 320 184.5C320 127.891 274.109 82 217.5 82C160.891 82 115 127.891 115 184.5C115 241.109 160.891 287 217.5 287ZM217.499 282.751C271.762 282.751 315.751 238.762 315.751 184.499C315.751 130.237 271.762 86.248 217.499 86.248C163.237 86.248 119.248 130.237 119.248 184.499C119.248 238.762 163.237 282.751 217.499 282.751Z" fill="url(#paint6_radial_2_846)"/>
<path fill-rule="evenodd" clip-rule="evenodd" d="M217.5 287C274.109 287 320 241.109 320 184.5C320 127.891 274.109 82 217.5 82C160.891 82 115 127.891 115 184.5C115 241.109 160.891 287 217.5 287ZM217.499 282.751C271.762 282.751 315.751 238.762 315.751 184.499C315.751 130.237 271.762 86.248 217.499 86.248C163.237 86.248 119.248 130.237 119.248 184.499C119.248 238.762 163.237 282.751 217.499 282.751Z" fill="url(#paint7_radial_2_846)"/>
</g>
<path d="M243.566 181.776H270.351V232.96C263.474 238.126 255.511 242.091 246.462 244.855C237.413 247.618 228.304 249 219.134 249C205.983 249 194.159 246.237 183.662 240.71C173.165 235.063 164.901 227.313 158.868 217.461C152.956 207.488 150 196.254 150 183.758C150 171.263 152.956 160.089 158.868 150.237C164.901 140.264 173.226 132.514 183.843 126.987C194.461 121.34 206.405 118.517 219.677 118.517C230.777 118.517 240.852 120.379 249.901 124.104C258.95 127.829 266.551 133.235 272.704 140.324L253.882 157.626C244.833 148.134 233.914 143.388 221.125 143.388C213.041 143.388 205.862 145.07 199.588 148.434C193.314 151.799 188.428 156.544 184.929 162.672C181.43 168.8 179.681 175.829 179.681 183.758C179.681 191.568 181.43 198.537 184.929 204.665C188.428 210.792 193.254 215.598 199.407 219.083C205.681 222.447 212.8 224.129 220.763 224.129C229.209 224.129 236.81 222.327 243.566 218.722V181.776Z" fill="white"/>
<path d="M393.686 149.876V246.837H366.901V235.303C363.161 239.508 358.696 242.752 353.508 245.035C348.32 247.198 342.71 248.279 336.677 248.279C323.888 248.279 313.753 244.615 306.273 237.285C298.792 229.956 295.052 219.083 295.052 204.665V149.876H323.285V200.519C323.285 216.139 329.86 223.949 343.012 223.949C349.768 223.949 355.197 221.786 359.3 217.461C363.402 213.015 365.453 206.467 365.453 197.816V149.876H393.686Z" fill="white"/>
<path d="M419.841 149.876H448.074V246.837H419.841V149.876ZM433.958 136.359C428.77 136.359 424.547 134.857 421.289 131.854C418.032 128.85 416.403 125.125 416.403 120.68C416.403 116.234 418.032 112.509 421.289 109.506C424.547 106.502 428.77 105 433.958 105C439.146 105 443.369 106.442 446.626 109.325C449.884 112.209 451.513 115.814 451.513 120.139C451.513 124.825 449.884 128.73 446.626 131.854C443.369 134.857 439.146 136.359 433.958 136.359Z" fill="white"/>
<path d="M537.076 242.151C534.301 244.194 530.863 245.756 526.761 246.837C522.779 247.799 518.556 248.279 514.092 248.279C502.509 248.279 493.521 245.335 487.126 239.448C480.852 233.561 477.715 224.91 477.715 213.496V173.666H462.694V152.039H477.715V128.429H505.948V152.039H530.199V173.666H505.948V213.135C505.948 217.22 506.974 220.404 509.025 222.687C511.196 224.85 514.213 225.931 518.074 225.931C522.538 225.931 526.338 224.73 529.475 222.327L537.076 242.151Z" fill="white"/>
<path d="M592.197 148.434C607.279 148.434 618.862 152.039 626.945 159.248C635.029 166.337 639.071 177.09 639.071 191.508V246.837H612.648V234.762C607.339 243.773 597.446 248.279 582.967 248.279C575.487 248.279 568.972 247.018 563.422 244.494C557.992 241.971 553.83 238.487 550.934 234.041C548.038 229.596 546.591 224.549 546.591 218.902C546.591 209.891 549.969 202.802 556.725 197.636C563.603 192.469 574.16 189.886 588.397 189.886H610.838C610.838 183.758 608.968 179.073 605.228 175.829C601.488 172.464 595.877 170.782 588.397 170.782C583.209 170.782 578.081 171.623 573.013 173.305C568.067 174.867 563.844 177.03 560.345 179.793L550.21 160.149C555.519 156.424 561.853 153.541 569.213 151.498C576.693 149.456 584.355 148.434 592.197 148.434ZM590.026 229.355C594.852 229.355 599.135 228.274 602.875 226.111C606.615 223.829 609.27 220.524 610.838 216.199V206.287H591.473C579.891 206.287 574.099 210.071 574.099 217.641C574.099 221.245 575.487 224.129 578.262 226.292C581.158 228.334 585.079 229.355 590.026 229.355Z" fill="white"/>
<path d="M691.589 162.672C694.967 157.986 699.492 154.442 705.162 152.039C710.954 149.636 717.589 148.434 725.07 148.434V174.387C721.933 174.146 719.822 174.026 718.736 174.026C710.652 174.026 704.318 176.309 699.733 180.875C695.148 185.32 692.856 192.049 692.856 201.06V246.837H664.623V149.876H691.589V162.672Z" fill="white"/>
<path d="M840.15 113.11V246.837H813.184V235.663C806.186 244.074 796.052 248.279 782.78 248.279C773.61 248.279 765.285 246.237 757.805 242.151C750.445 238.066 744.653 232.239 740.431 224.67C736.208 217.1 734.096 208.329 734.096 198.357C734.096 188.384 736.208 179.613 740.431 172.044C744.653 164.474 750.445 158.647 757.805 154.562C765.285 150.477 773.61 148.434 782.78 148.434C795.207 148.434 804.92 152.339 811.917 160.149V113.11H840.15ZM787.666 225.21C794.785 225.21 800.697 222.807 805.402 218.001C810.108 213.075 812.46 206.527 812.46 198.357C812.46 190.186 810.108 183.698 805.402 178.892C800.697 173.966 794.785 171.503 787.666 171.503C780.427 171.503 774.455 173.966 769.749 178.892C765.044 183.698 762.691 190.186 762.691 198.357C762.691 206.527 765.044 213.075 769.749 218.001C774.455 222.807 780.427 225.21 787.666 225.21Z" fill="white"/>
<path d="M912.611 248.279C902.356 248.279 893.126 246.176 884.921 241.971C876.838 237.646 870.503 231.698 865.918 224.129C861.334 216.559 859.041 207.969 859.041 198.357C859.041 188.745 861.334 180.154 865.918 172.584C870.503 165.015 876.838 159.128 884.921 154.922C893.126 150.597 902.356 148.434 912.611 148.434C922.867 148.434 932.036 150.597 940.12 154.922C948.204 159.128 954.538 165.015 959.123 172.584C963.708 180.154 966 188.745 966 198.357C966 207.969 963.708 216.559 959.123 224.129C954.538 231.698 948.204 237.646 940.12 241.971C932.036 246.176 922.867 248.279 912.611 248.279ZM912.611 225.21C919.85 225.21 925.762 222.807 930.347 218.001C935.053 213.075 937.405 206.527 937.405 198.357C937.405 190.186 935.053 183.698 930.347 178.892C925.762 173.966 919.85 171.503 912.611 171.503C905.372 171.503 899.4 173.966 894.694 178.892C889.989 183.698 887.636 190.186 887.636 198.357C887.636 206.527 889.989 213.075 894.694 218.001C899.4 222.807 905.372 225.21 912.611 225.21Z" fill="white"/>
<g style="mix-blend-mode:screen" opacity="0.8" filter="url(#filter1_f_2_846)">
<ellipse cx="218" cy="184.5" rx="140" ry="55.5" fill="url(#paint8_linear_2_846)"/>
</g>
<path d="M382.601 300.6V337H334.553V300.6H342.925V330.136H354.417V300.6H362.789V330.136H374.229V300.6H382.601Z" fill="white"/>
<path d="M403.331 326.392H399.119V337H391.007V309.024H399.119V319.892H403.487L411.079 309.024H419.711L409.935 322.44L420.387 337H410.819L403.331 326.392Z" fill="white"/>
<path d="M436.611 337.416C433.665 337.416 431.013 336.809 428.655 335.596C426.333 334.348 424.513 332.632 423.195 330.448C421.878 328.264 421.219 325.785 421.219 323.012C421.219 320.239 421.878 317.76 423.195 315.576C424.513 313.392 426.333 311.693 428.655 310.48C431.013 309.232 433.665 308.608 436.611 308.608C439.558 308.608 442.193 309.232 444.515 310.48C446.838 311.693 448.658 313.392 449.975 315.576C451.293 317.76 451.951 320.239 451.951 323.012C451.951 325.785 451.293 328.264 449.975 330.448C448.658 332.632 446.838 334.348 444.515 335.596C442.193 336.809 439.558 337.416 436.611 337.416ZM436.611 330.76C438.691 330.76 440.39 330.067 441.707 328.68C443.059 327.259 443.735 325.369 443.735 323.012C443.735 320.655 443.059 318.783 441.707 317.396C440.39 315.975 438.691 315.264 436.611 315.264C434.531 315.264 432.815 315.975 431.463 317.396C430.111 318.783 429.435 320.655 429.435 323.012C429.435 325.369 430.111 327.259 431.463 328.68C432.815 330.067 434.531 330.76 436.611 330.76Z" fill="white"/>
<path d="M483.957 309.024V337H475.845V315.68H467.005L466.745 320.62C466.606 324.295 466.259 327.345 465.705 329.772C465.15 332.199 464.249 334.105 463.001 335.492C461.753 336.879 460.019 337.572 457.801 337.572C456.622 337.572 455.218 337.364 453.589 336.948L454.005 330.292C454.559 330.361 454.958 330.396 455.201 330.396C456.414 330.396 457.315 329.963 457.905 329.096C458.529 328.195 458.945 327.068 459.153 325.716C459.361 324.329 459.517 322.509 459.621 320.256L460.037 309.024H483.957Z" fill="white"/>
<path d="M502.625 308.608C506.959 308.608 510.287 309.648 512.609 311.728C514.932 313.773 516.093 316.876 516.093 321.036V337H508.501V333.516C506.976 336.116 504.133 337.416 499.973 337.416C497.824 337.416 495.952 337.052 494.357 336.324C492.797 335.596 491.601 334.591 490.769 333.308C489.937 332.025 489.521 330.569 489.521 328.94C489.521 326.34 490.492 324.295 492.433 322.804C494.409 321.313 497.443 320.568 501.533 320.568H507.981C507.981 318.8 507.444 317.448 506.369 316.512C505.295 315.541 503.683 315.056 501.533 315.056C500.043 315.056 498.569 315.299 497.113 315.784C495.692 316.235 494.479 316.859 493.473 317.656L490.561 311.988C492.087 310.913 493.907 310.081 496.021 309.492C498.171 308.903 500.372 308.608 502.625 308.608ZM502.001 331.956C503.388 331.956 504.619 331.644 505.693 331.02C506.768 330.361 507.531 329.408 507.981 328.16V325.3H502.417C499.089 325.3 497.425 326.392 497.425 328.576C497.425 329.616 497.824 330.448 498.621 331.072C499.453 331.661 500.58 331.956 502.001 331.956Z" fill="white"/>
<path d="M565.167 337V320.256L556.795 334.296H553.363L545.199 320.204V337H537.867V309.024H546.343L555.287 325.196L564.803 309.024H572.395L572.499 337H565.167Z" fill="white"/>
<path d="M608.297 309.024L595.661 338.716C594.378 341.94 592.784 344.211 590.877 345.528C589.005 346.845 586.734 347.504 584.065 347.504C582.609 347.504 581.17 347.279 579.749 346.828C578.328 346.377 577.166 345.753 576.265 344.956L579.229 339.184C579.853 339.739 580.564 340.172 581.361 340.484C582.193 340.796 583.008 340.952 583.805 340.952C584.914 340.952 585.816 340.675 586.509 340.12C587.202 339.6 587.826 338.716 588.381 337.468L588.485 337.208L576.369 309.024H584.741L592.593 328.004L600.497 309.024H608.297Z" fill="white"/>
<path d="M629.749 322.44C631.413 322.96 632.696 323.757 633.597 324.832C634.533 325.907 635.001 327.189 635.001 328.68C635.001 330.448 634.394 332.008 633.181 333.36C631.968 334.677 630.304 335.7 628.189 336.428C626.074 337.156 623.682 337.52 621.013 337.52C618.829 337.52 616.68 337.295 614.565 336.844C612.45 336.393 610.492 335.717 608.689 334.816L610.873 329.148C613.82 330.569 617.078 331.28 620.649 331.28C622.556 331.28 624.046 331.003 625.121 330.448C626.23 329.859 626.785 329.044 626.785 328.004C626.785 327.103 626.404 326.427 625.641 325.976C624.878 325.491 623.769 325.248 622.313 325.248H616.593V320.204H621.585C623.006 320.204 624.098 319.979 624.861 319.528C625.624 319.077 626.005 318.419 626.005 317.552C626.005 316.651 625.52 315.957 624.549 315.472C623.613 314.987 622.261 314.744 620.493 314.744C617.789 314.744 614.842 315.385 611.653 316.668L609.677 311.052C613.56 309.353 617.338 308.504 621.013 308.504C623.544 308.504 625.797 308.816 627.773 309.44C629.784 310.064 631.361 310.983 632.505 312.196C633.649 313.375 634.221 314.761 634.221 316.356C634.221 317.673 633.822 318.869 633.025 319.944C632.228 320.984 631.136 321.816 629.749 322.44Z" fill="white"/>
<path d="M655.618 317.968C659.258 318.003 662.014 318.817 663.886 320.412C665.758 322.007 666.694 324.295 666.694 327.276C666.694 330.396 665.637 332.805 663.522 334.504C661.407 336.203 658.409 337.052 654.526 337.052L640.902 337V309.024H648.962V317.968H655.618ZM669.71 309.024H677.77V337H669.71V309.024ZM653.798 331.28C655.358 331.315 656.554 330.985 657.386 330.292C658.218 329.599 658.634 328.559 658.634 327.172C658.634 325.82 658.218 324.832 657.386 324.208C656.589 323.584 655.393 323.255 653.798 323.22L648.962 323.168V331.28H653.798Z" fill="white"/>
<path d="M697.913 326.392H693.701V337H685.589V309.024H693.701V319.892H698.069L705.661 309.024H714.293L704.517 322.44L714.969 337H705.401L697.913 326.392Z" fill="white"/>
<path d="M718.953 309.024H727.013V325.664L740.637 309.024H748.073V337H740.013V320.36L726.441 337H718.953V309.024Z" fill="white"/>
</g>
<defs>
<filter id="filter0_d_2_846" x="54" y="44" width="327" height="327" filterUnits="userSpaceOnUse" color-interpolation-filters="sRGB">
<feFlood flood-opacity="0" result="BackgroundImageFix"/>
<feColorMatrix in="SourceAlpha" type="matrix" values="0 0 0 0 0 0 0 0 0 0 0 0 0 0 0 0 0 0 127 0" result="hardAlpha"/>
<feOffset dy="23"/>
<feGaussianBlur stdDeviation="30.5"/>
<feComposite in2="hardAlpha" operator="out"/>
<feColorMatrix type="matrix" values="0 0 0 0 0.341176 0 0 0 0 0.12549 0 0 0 0 0.662745 0 0 0 0.56 0"/>
<feBlend mode="normal" in2="BackgroundImageFix" result="effect1_dropShadow_2_846"/>
<feBlend mode="normal" in="SourceGraphic" in2="effect1_dropShadow_2_846" result="shape"/>
</filter>
<filter id="filter1_f_2_846" x="-56" y="-5" width="548" height="379" filterUnits="userSpaceOnUse" color-interpolation-filters="sRGB">
<feFlood flood-opacity="0" result="BackgroundImageFix"/>
<feBlend mode="normal" in="SourceGraphic" in2="BackgroundImageFix" result="shape"/>
<feGaussianBlur stdDeviation="67" result="effect1_foregroundBlur_2_846"/>
</filter>
<radialGradient id="paint0_radial_2_846" cx="0" cy="0" r="1" gradientUnits="userSpaceOnUse" gradientTransform="translate(217.919 92) rotate(90) scale(92.5)">
<stop offset="0.145833" stop-color="#EC2D70"/>
<stop offset="1" stop-color="#4B1BA9" stop-opacity="0.25"/>
</radialGradient>
<radialGradient id="paint1_radial_2_846" cx="0" cy="0" r="1" gradientUnits="userSpaceOnUse" gradientTransform="translate(217.919 277) rotate(-90) scale(97.125 101.302)">
<stop offset="0.0989583" stop-color="#27FB95"/>
<stop offset="1" stop-color="#5F22C3" stop-opacity="0.25"/>
</radialGradient>
<radialGradient id="paint2_radial_2_846" cx="0" cy="0" r="1" gradientUnits="userSpaceOnUse" gradientTransform="translate(121.5 184.5) scale(96.5 97.3793)">
<stop stop-color="#D95E19"/>
<stop offset="1" stop-color="#651FF9" stop-opacity="0.25"/>
</radialGradient>
<radialGradient id="paint3_radial_2_846" cx="0" cy="0" r="1" gradientUnits="userSpaceOnUse" gradientTransform="translate(316.697 184.5) rotate(-180) scale(98.7783 108.087)">
<stop stop-color="#46E5EB"/>
<stop offset="1" stop-color="#651FF9" stop-opacity="0"/>
</radialGradient>
<radialGradient id="paint4_radial_2_846" cx="0" cy="0" r="1" gradientUnits="userSpaceOnUse" gradientTransform="translate(217.964 82) rotate(90) scale(102.5)">
<stop offset="0.145833" stop-color="#EC2D70"/>
<stop offset="1" stop-color="#4B1BA9" stop-opacity="0.25"/>
</radialGradient>
<radialGradient id="paint5_radial_2_846" cx="0" cy="0" r="1" gradientUnits="userSpaceOnUse" gradientTransform="translate(217.964 287) rotate(-90) scale(107.625 112.254)">
<stop offset="0.0989583" stop-color="#27FB95"/>
<stop offset="1" stop-color="#5F22C3" stop-opacity="0.25"/>
</radialGradient>
<radialGradient id="paint6_radial_2_846" cx="0" cy="0" r="1" gradientUnits="userSpaceOnUse" gradientTransform="translate(111.122 184.5) scale(106.932 107.907)">
<stop stop-color="#D95E19"/>
<stop offset="1" stop-color="#651FF9" stop-opacity="0.25"/>
</radialGradient>
<radialGradient id="paint7_radial_2_846" cx="0" cy="0" r="1" gradientUnits="userSpaceOnUse" gradientTransform="translate(327.421 184.5) rotate(-180) scale(109.457 119.773)">
<stop stop-color="#46E5EB"/>
<stop offset="1" stop-color="#651FF9" stop-opacity="0"/>
</radialGradient>
<linearGradient id="paint8_linear_2_846" x1="286.889" y1="167.675" x2="109.111" y2="167.675" gradientUnits="userSpaceOnUse">
<stop stop-color="#02301C"/>
<stop offset="1" stop-color="#953C75"/>
</linearGradient>
<clipPath id="clip0_2_846">
<rect width="1043" height="437" fill="white"/>
</clipPath>
</defs>
</svg>
