<svg width="148" height="62" viewBox="0 0 148 62" fill="none" xmlns="http://www.w3.org/2000/svg">
<g clip-path="url(#clip0_2130_1341)">
<g filter="url(#filter0_d_2130_1341)">
<circle cx="30.8358" cy="26.1507" r="13.1102" fill="#48258F"/>
<circle cx="30.8358" cy="26.1507" r="13.1102" fill="url(#paint0_radial_2130_1341)"/>
<circle cx="30.8358" cy="26.1507" r="13.1102" fill="url(#paint1_radial_2130_1341)"/>
<circle cx="30.8358" cy="26.1507" r="13.1102" fill="url(#paint2_radial_2130_1341)"/>
<circle cx="30.8358" cy="26.1507" r="13.1102" fill="url(#paint3_radial_2130_1341)"/>
<path fill-rule="evenodd" clip-rule="evenodd" d="M30.8361 40.6784C38.8595 40.6784 45.3637 34.1742 45.3637 26.1508C45.3637 18.1275 38.8595 11.6233 30.8361 11.6233C22.8128 11.6233 16.3086 18.1275 16.3086 26.1508C16.3086 34.1742 22.8128 40.6784 30.8361 40.6784ZM30.8361 40.0762C38.5269 40.0762 44.7615 33.8416 44.7615 26.1508C44.7615 18.46 38.5269 12.2254 30.8361 12.2254C23.1453 12.2254 16.9107 18.46 16.9107 26.1508C16.9107 33.8416 23.1453 40.0762 30.8361 40.0762Z" fill="#48258F"/>
<path fill-rule="evenodd" clip-rule="evenodd" d="M30.8361 40.6784C38.8595 40.6784 45.3637 34.1742 45.3637 26.1508C45.3637 18.1275 38.8595 11.6233 30.8361 11.6233C22.8128 11.6233 16.3086 18.1275 16.3086 26.1508C16.3086 34.1742 22.8128 40.6784 30.8361 40.6784ZM30.8361 40.0762C38.5269 40.0762 44.7615 33.8416 44.7615 26.1508C44.7615 18.46 38.5269 12.2254 30.8361 12.2254C23.1453 12.2254 16.9107 18.46 16.9107 26.1508C16.9107 33.8416 23.1453 40.0762 30.8361 40.0762Z" fill="url(#paint4_radial_2130_1341)"/>
<path fill-rule="evenodd" clip-rule="evenodd" d="M30.8361 40.6784C38.8595 40.6784 45.3637 34.1742 45.3637 26.1508C45.3637 18.1275 38.8595 11.6233 30.8361 11.6233C22.8128 11.6233 16.3086 18.1275 16.3086 26.1508C16.3086 34.1742 22.8128 40.6784 30.8361 40.6784ZM30.8361 40.0762C38.5269 40.0762 44.7615 33.8416 44.7615 26.1508C44.7615 18.46 38.5269 12.2254 30.8361 12.2254C23.1453 12.2254 16.9107 18.46 16.9107 26.1508C16.9107 33.8416 23.1453 40.0762 30.8361 40.0762Z" fill="url(#paint5_radial_2130_1341)"/>
<path fill-rule="evenodd" clip-rule="evenodd" d="M30.8361 40.6784C38.8595 40.6784 45.3637 34.1742 45.3637 26.1508C45.3637 18.1275 38.8595 11.6233 30.8361 11.6233C22.8128 11.6233 16.3086 18.1275 16.3086 26.1508C16.3086 34.1742 22.8128 40.6784 30.8361 40.6784ZM30.8361 40.0762C38.5269 40.0762 44.7615 33.8416 44.7615 26.1508C44.7615 18.46 38.5269 12.2254 30.8361 12.2254C23.1453 12.2254 16.9107 18.46 16.9107 26.1508C16.9107 33.8416 23.1453 40.0762 30.8361 40.0762Z" fill="url(#paint6_radial_2130_1341)"/>
<path fill-rule="evenodd" clip-rule="evenodd" d="M30.8361 40.6784C38.8595 40.6784 45.3637 34.1742 45.3637 26.1508C45.3637 18.1275 38.8595 11.6233 30.8361 11.6233C22.8128 11.6233 16.3086 18.1275 16.3086 26.1508C16.3086 34.1742 22.8128 40.6784 30.8361 40.6784ZM30.8361 40.0762C38.5269 40.0762 44.7615 33.8416 44.7615 26.1508C44.7615 18.46 38.5269 12.2254 30.8361 12.2254C23.1453 12.2254 16.9107 18.46 16.9107 26.1508C16.9107 33.8416 23.1453 40.0762 30.8361 40.0762Z" fill="url(#paint7_radial_2130_1341)"/>
</g>
<path d="M34.5279 25.7644H38.3242V33.0188C37.3495 33.7511 36.2209 34.313 34.9383 34.7047C33.6558 35.0964 32.3647 35.2922 31.0651 35.2922C29.2012 35.2922 27.5253 34.9006 26.0376 34.1172C24.5499 33.3168 23.3785 32.2185 22.5235 30.8221C21.6856 29.4087 21.2666 27.8164 21.2666 26.0454C21.2666 24.2744 21.6856 22.6907 22.5235 21.2943C23.3785 19.8809 24.5584 18.7825 26.0633 17.9991C27.5681 17.1988 29.261 16.7986 31.1421 16.7986C32.7153 16.7986 34.1432 17.0625 35.4257 17.5904C36.7082 18.1183 37.7856 18.8847 38.6577 19.8894L35.99 22.3416C34.7075 20.9963 33.1599 20.3236 31.3473 20.3236C30.2015 20.3236 29.1841 20.562 28.2949 21.0388C27.4056 21.5157 26.7131 22.1883 26.2172 23.0568C25.7212 23.9253 25.4733 24.9215 25.4733 26.0454C25.4733 27.1523 25.7212 28.14 26.2172 29.0085C26.7131 29.877 27.3971 30.5581 28.2692 31.052C29.1584 31.5288 30.1673 31.7672 31.296 31.7672C32.493 31.7672 33.5703 31.5118 34.5279 31.0009V25.7644Z" fill="white"/>
<path d="M55.8047 21.2432V34.9857H52.0084V33.3509C51.4783 33.9469 50.8456 34.4067 50.1102 34.7303C49.3749 35.0368 48.5798 35.19 47.7247 35.19C45.9121 35.19 44.4757 34.6707 43.4155 33.6319C42.3552 32.5931 41.8251 31.052 41.8251 29.0085V21.2432H45.8266V28.421C45.8266 30.6348 46.7586 31.7416 48.6225 31.7416C49.5801 31.7416 50.3496 31.4351 50.9311 30.8221C51.5125 30.192 51.8032 29.2639 51.8032 28.0378V21.2432H55.8047Z" fill="white"/>
<path d="M59.5118 21.2432H63.5133V34.9857H59.5118V21.2432ZM61.5125 19.3274C60.7772 19.3274 60.1787 19.1146 59.717 18.6888C59.2553 18.2631 59.0244 17.7352 59.0244 17.1051C59.0244 16.475 59.2553 15.9471 59.717 15.5214C60.1787 15.0957 60.7772 14.8828 61.5125 14.8828C62.2478 14.8828 62.8463 15.0872 63.3081 15.4959C63.7698 15.9046 64.0006 16.4154 64.0006 17.0285C64.0006 17.6926 63.7698 18.2461 63.3081 18.6888C62.8463 19.1146 62.2478 19.3274 61.5125 19.3274Z" fill="white"/>
<path d="M76.1277 34.3216C75.7344 34.6111 75.247 34.8324 74.6656 34.9857C74.1013 35.1219 73.5028 35.19 72.8701 35.19C71.2285 35.19 69.9545 34.7728 69.0482 33.9384C68.159 33.104 67.7143 31.8779 67.7143 30.2601V24.615H65.5853V21.5497H67.7143V18.2035H71.7158V21.5497H75.153V24.615H71.7158V30.209C71.7158 30.788 71.8612 31.2393 72.1519 31.5628C72.4597 31.8694 72.8872 32.0226 73.4344 32.0226C74.0671 32.0226 74.6058 31.8523 75.0504 31.5118L76.1277 34.3216Z" fill="white"/>
<path d="M83.9401 21.0388C86.0777 21.0388 87.7193 21.5497 88.865 22.5715C90.0107 23.5762 90.5836 25.1003 90.5836 27.1438V34.9857H86.8386V33.2743C86.0862 34.5515 84.684 35.19 82.6319 35.19C81.5717 35.19 80.6483 35.0112 79.8617 34.6536C79.0922 34.296 78.5022 33.8022 78.0918 33.1721C77.6814 32.542 77.4762 31.8268 77.4762 31.0264C77.4762 29.7492 77.955 28.7445 78.9126 28.0123C79.8873 27.28 81.3836 26.9139 83.4015 26.9139H86.5821C86.5821 26.0454 86.3171 25.3813 85.787 24.9215C85.2568 24.4447 84.4617 24.2063 83.4015 24.2063C82.6661 24.2063 81.9394 24.3255 81.2212 24.5639C80.52 24.7853 79.9215 25.0918 79.4256 25.4834L77.9892 22.6992C78.7416 22.1713 79.6394 21.7626 80.6825 21.4731C81.7427 21.1836 82.8286 21.0388 83.9401 21.0388ZM83.6323 32.508C84.3163 32.508 84.9234 32.3547 85.4535 32.0482C85.9836 31.7246 86.3598 31.2563 86.5821 30.6433V29.2384H83.8375C82.1959 29.2384 81.3751 29.7748 81.3751 30.8476C81.3751 31.3585 81.5717 31.7672 81.965 32.0737C82.3754 32.3632 82.9312 32.508 83.6323 32.508Z" fill="white"/>
<path d="M98.0271 23.0568C98.5059 22.3927 99.1471 21.8903 99.9509 21.5497C100.772 21.2091 101.712 21.0388 102.772 21.0388V24.7171C102.328 24.6831 102.029 24.666 101.875 24.666C100.729 24.666 99.8312 24.9896 99.1814 25.6367C98.5315 26.2668 98.2066 27.2204 98.2066 28.4976V34.9857H94.2051V21.2432H98.0271V23.0568Z" fill="white"/>
<path d="M119.083 16.0323V34.9857H115.261V33.402C114.269 34.594 112.833 35.19 110.952 35.19C109.652 35.19 108.472 34.9006 107.412 34.3216C106.369 33.7426 105.548 32.9167 104.95 31.8438C104.351 30.771 104.052 29.5279 104.052 28.1144C104.052 26.701 104.351 25.4579 104.95 24.3851C105.548 23.3122 106.369 22.4863 107.412 21.9073C108.472 21.3283 109.652 21.0388 110.952 21.0388C112.713 21.0388 114.09 21.5923 115.081 22.6992V16.0323H119.083ZM111.644 31.9205C112.653 31.9205 113.491 31.5799 114.158 30.8987C114.825 30.2005 115.158 29.2724 115.158 28.1144C115.158 26.9565 114.825 26.0369 114.158 25.3557C113.491 24.6575 112.653 24.3084 111.644 24.3084C110.618 24.3084 109.772 24.6575 109.105 25.3557C108.438 26.0369 108.105 26.9565 108.105 28.1144C108.105 29.2724 108.438 30.2005 109.105 30.8987C109.772 31.5799 110.618 31.9205 111.644 31.9205Z" fill="white"/>
<path d="M129.353 35.19C127.899 35.19 126.591 34.892 125.428 34.296C124.283 33.683 123.385 32.84 122.735 31.7672C122.085 30.6944 121.76 29.4768 121.76 28.1144C121.76 26.7521 122.085 25.5345 122.735 24.4617C123.385 23.3889 124.283 22.5544 125.428 21.9584C126.591 21.3454 127.899 21.0388 129.353 21.0388C130.807 21.0388 132.106 21.3454 133.252 21.9584C134.398 22.5544 135.295 23.3889 135.945 24.4617C136.595 25.5345 136.92 26.7521 136.92 28.1144C136.92 29.4768 136.595 30.6944 135.945 31.7672C135.295 32.84 134.398 33.683 133.252 34.296C132.106 34.892 130.807 35.19 129.353 35.19ZM129.353 31.9205C130.379 31.9205 131.217 31.5799 131.867 30.8987C132.534 30.2005 132.867 29.2724 132.867 28.1144C132.867 26.9565 132.534 26.0369 131.867 25.3557C131.217 24.6575 130.379 24.3084 129.353 24.3084C128.327 24.3084 127.481 24.6575 126.814 25.3557C126.147 26.0369 125.813 26.9565 125.813 28.1144C125.813 29.2724 126.147 30.2005 126.814 30.8987C127.481 31.5799 128.327 31.9205 129.353 31.9205Z" fill="white"/>
<g style="mix-blend-mode:screen" opacity="0.8" filter="url(#filter1_f_2130_1341)">
<ellipse cx="30.9021" cy="26.1501" rx="19.8425" ry="7.86613" fill="url(#paint8_linear_2130_1341)"/>
</g>
<path d="M54.2269 42.6042V47.7633H47.417V42.6042H48.6036V46.7904H50.2324V42.6042H51.4189V46.7904H53.0404V42.6042H54.2269Z" fill="white"/>
<path d="M57.1651 46.2598H56.5681V47.7633H55.4183V43.7982H56.5681V45.3385H57.1872L58.2632 43.7982H59.4866L58.1011 45.6997L59.5824 47.7633H58.2263L57.1651 46.2598Z" fill="white"/>
<path d="M61.8819 47.8223C61.4643 47.8223 61.0884 47.7363 60.7543 47.5643C60.4251 47.3874 60.1671 47.1442 59.9804 46.8347C59.7937 46.5251 59.7004 46.1738 59.7004 45.7807C59.7004 45.3877 59.7937 45.0364 59.9804 44.7268C60.1671 44.4173 60.4251 44.1765 60.7543 44.0046C61.0884 43.8277 61.4643 43.7392 61.8819 43.7392C62.2995 43.7392 62.673 43.8277 63.0021 44.0046C63.3313 44.1765 63.5893 44.4173 63.776 44.7268C63.9627 45.0364 64.0561 45.3877 64.0561 45.7807C64.0561 46.1738 63.9627 46.5251 63.776 46.8347C63.5893 47.1442 63.3313 47.3874 63.0021 47.5643C62.673 47.7363 62.2995 47.8223 61.8819 47.8223ZM61.8819 46.8789C62.1767 46.8789 62.4175 46.7806 62.6042 46.5841C62.7958 46.3826 62.8916 46.1149 62.8916 45.7807C62.8916 45.4466 62.7958 45.1813 62.6042 44.9848C62.4175 44.7833 62.1767 44.6826 61.8819 44.6826C61.5871 44.6826 61.3439 44.7833 61.1523 44.9848C60.9606 45.1813 60.8648 45.4466 60.8648 45.7807C60.8648 46.1149 60.9606 46.3826 61.1523 46.5841C61.3439 46.7806 61.5871 46.8789 61.8819 46.8789Z" fill="white"/>
<path d="M68.5922 43.7982V47.7633H67.4425V44.7416H66.1896L66.1527 45.4417C66.1331 45.9625 66.0839 46.3949 66.0053 46.7389C65.9267 47.0828 65.799 47.353 65.6221 47.5496C65.4452 47.7461 65.1995 47.8444 64.8851 47.8444C64.718 47.8444 64.519 47.8149 64.2881 47.7559L64.3471 46.8126C64.4257 46.8224 64.4822 46.8273 64.5166 46.8273C64.6885 46.8273 64.8163 46.7659 64.8998 46.643C64.9883 46.5153 65.0472 46.3556 65.0767 46.164C65.1062 45.9675 65.1283 45.7095 65.143 45.3901L65.202 43.7982H68.5922Z" fill="white"/>
<path d="M71.2382 43.7392C71.8524 43.7392 72.3241 43.8866 72.6532 44.1814C72.9824 44.4713 73.147 44.9111 73.147 45.5007V47.7633H72.071V47.2695C71.8548 47.638 71.4519 47.8223 70.8623 47.8223C70.5577 47.8223 70.2924 47.7707 70.0664 47.6675C69.8453 47.5643 69.6757 47.4218 69.5578 47.24C69.4399 47.0582 69.3809 46.8519 69.3809 46.6209C69.3809 46.2524 69.5185 45.9625 69.7937 45.7513C70.0737 45.54 70.5036 45.4344 71.0834 45.4344H71.9973C71.9973 45.1838 71.9212 44.9921 71.7688 44.8595C71.6165 44.7219 71.3881 44.6531 71.0834 44.6531C70.8721 44.6531 70.6633 44.6875 70.457 44.7563C70.2555 44.8202 70.0835 44.9086 69.9411 45.0216L69.5283 44.2183C69.7445 44.066 70.0025 43.9481 70.3022 43.8645C70.6068 43.781 70.9188 43.7392 71.2382 43.7392ZM71.1498 47.0484C71.3463 47.0484 71.5207 47.0042 71.673 46.9157C71.8253 46.8224 71.9334 46.6873 71.9973 46.5104V46.105H71.2087C70.737 46.105 70.5012 46.2598 70.5012 46.5693C70.5012 46.7167 70.5577 46.8347 70.6707 46.9231C70.7886 47.0066 70.9483 47.0484 71.1498 47.0484Z" fill="white"/>
<path d="M80.1023 47.7633V45.3901L78.9157 47.3801H78.4293L77.2722 45.3828V47.7633H76.233V43.7982H77.4343L78.702 46.0903L80.0507 43.7982H81.1267L81.1415 47.7633H80.1023Z" fill="white"/>
<path d="M86.2153 43.7982L84.4243 48.0065C84.2425 48.4634 84.0165 48.7853 83.7463 48.972C83.481 49.1587 83.1591 49.252 82.7808 49.252C82.5744 49.252 82.3705 49.2201 82.1691 49.1562C81.9676 49.0924 81.803 49.0039 81.6753 48.8909L82.0954 48.0728C82.1838 48.1515 82.2846 48.2129 82.3976 48.2571C82.5155 48.3013 82.631 48.3234 82.744 48.3234C82.9012 48.3234 83.0289 48.2841 83.1272 48.2055C83.2255 48.1318 83.3139 48.0065 83.3925 47.8296L83.4073 47.7928L81.69 43.7982H82.8766L83.9895 46.4883L85.1098 43.7982H86.2153Z" fill="white"/>
<path d="M89.2557 45.6997C89.4915 45.7734 89.6733 45.8864 89.8011 46.0387C89.9337 46.191 90.0001 46.3728 90.0001 46.5841C90.0001 46.8347 89.9141 47.0558 89.7421 47.2474C89.5702 47.4341 89.3343 47.579 89.0346 47.6822C88.7349 47.7854 88.3959 47.837 88.0175 47.837C87.708 47.837 87.4034 47.8051 87.1036 47.7412C86.8039 47.6773 86.5263 47.5815 86.2708 47.4538L86.5804 46.6504C86.998 46.8519 87.4599 46.9526 87.9659 46.9526C88.2362 46.9526 88.4475 46.9133 88.5998 46.8347C88.757 46.7511 88.8356 46.6357 88.8356 46.4883C88.8356 46.3605 88.7816 46.2647 88.6735 46.2008C88.5654 46.1321 88.4081 46.0977 88.2018 46.0977H87.3911V45.3828H88.0986C88.3001 45.3828 88.4548 45.3508 88.5629 45.287C88.671 45.2231 88.7251 45.1297 88.7251 45.0069C88.7251 44.8791 88.6563 44.7809 88.5187 44.7121C88.386 44.6433 88.1944 44.6089 87.9438 44.6089C87.5606 44.6089 87.1429 44.6998 86.6909 44.8816L86.4109 44.0856C86.9612 43.8449 87.4967 43.7245 88.0175 43.7245C88.3762 43.7245 88.6956 43.7687 88.9756 43.8572C89.2606 43.9456 89.4842 44.0758 89.6463 44.2478C89.8085 44.4148 89.8895 44.6114 89.8895 44.8374C89.8895 45.0241 89.833 45.1936 89.72 45.3459C89.607 45.4933 89.4522 45.6112 89.2557 45.6997Z" fill="white"/>
<path d="M92.9221 45.0658C93.438 45.0708 93.8287 45.1862 94.094 45.4122C94.3593 45.6383 94.492 45.9625 94.492 46.3851C94.492 46.8273 94.3421 47.1688 94.0424 47.4095C93.7427 47.6503 93.3177 47.7707 92.7674 47.7707L90.8364 47.7633V43.7982H91.9788V45.0658H92.9221ZM94.9194 43.7982H96.0618V47.7633H94.9194V43.7982ZM92.6642 46.9526C92.8853 46.9575 93.0548 46.9108 93.1727 46.8126C93.2906 46.7143 93.3496 46.5669 93.3496 46.3704C93.3496 46.1787 93.2906 46.0387 93.1727 45.9503C93.0597 45.8618 92.8902 45.8151 92.6642 45.8102L91.9788 45.8029V46.9526H92.6642Z" fill="white"/>
<path d="M98.9168 46.2598H98.3198V47.7633H97.1701V43.7982H98.3198V45.3385H98.9389L100.015 43.7982H101.238L99.8528 45.6997L101.334 47.7633H99.9781L98.9168 46.2598Z" fill="white"/>
<path d="M101.899 43.7982H103.041V46.1566L104.972 43.7982H106.026V47.7633H104.884V45.4049L102.96 47.7633H101.899V43.7982Z" fill="white"/>
</g>
<defs>
<filter id="filter0_d_2130_1341" x="7.66294" y="6.23748" width="46.346" height="46.3465" filterUnits="userSpaceOnUse" color-interpolation-filters="sRGB">
<feFlood flood-opacity="0" result="BackgroundImageFix"/>
<feColorMatrix in="SourceAlpha" type="matrix" values="0 0 0 0 0 0 0 0 0 0 0 0 0 0 0 0 0 0 127 0" result="hardAlpha"/>
<feOffset dy="3.25984"/>
<feGaussianBlur stdDeviation="4.32283"/>
<feComposite in2="hardAlpha" operator="out"/>
<feColorMatrix type="matrix" values="0 0 0 0 0.341176 0 0 0 0 0.12549 0 0 0 0 0.662745 0 0 0 0.56 0"/>
<feBlend mode="normal" in2="BackgroundImageFix" result="effect1_dropShadow_2130_1341"/>
<feBlend mode="normal" in="SourceGraphic" in2="effect1_dropShadow_2130_1341" result="shape"/>
</filter>
<filter id="filter1_f_2130_1341" x="-7.93252" y="-0.708153" width="77.6687" height="53.7164" filterUnits="userSpaceOnUse" color-interpolation-filters="sRGB">
<feFlood flood-opacity="0" result="BackgroundImageFix"/>
<feBlend mode="normal" in="SourceGraphic" in2="BackgroundImageFix" result="shape"/>
<feGaussianBlur stdDeviation="9.49604" result="effect1_foregroundBlur_2130_1341"/>
</filter>
<radialGradient id="paint0_radial_2130_1341" cx="0" cy="0" r="1" gradientUnits="userSpaceOnUse" gradientTransform="translate(30.8951 13.0405) rotate(90) scale(13.1102)">
<stop offset="0.145833" stop-color="#EC2D70"/>
<stop offset="1" stop-color="#4B1BA9" stop-opacity="0.25"/>
</radialGradient>
<radialGradient id="paint1_radial_2130_1341" cx="0" cy="0" r="1" gradientUnits="userSpaceOnUse" gradientTransform="translate(30.8951 39.261) rotate(-90) scale(13.7657 14.3578)">
<stop offset="0.0989583" stop-color="#27FB95"/>
<stop offset="1" stop-color="#5F22C3" stop-opacity="0.25"/>
</radialGradient>
<radialGradient id="paint2_radial_2130_1341" cx="0" cy="0" r="1" gradientUnits="userSpaceOnUse" gradientTransform="translate(17.2295 26.1507) scale(13.6771 13.8018)">
<stop stop-color="#D95E19"/>
<stop offset="1" stop-color="#651FF9" stop-opacity="0.25"/>
</radialGradient>
<radialGradient id="paint3_radial_2130_1341" cx="0" cy="0" r="1" gradientUnits="userSpaceOnUse" gradientTransform="translate(44.8952 26.1507) rotate(-180) scale(14 15.3194)">
<stop stop-color="#46E5EB"/>
<stop offset="1" stop-color="#651FF9" stop-opacity="0"/>
</radialGradient>
<radialGradient id="paint4_radial_2130_1341" cx="0" cy="0" r="1" gradientUnits="userSpaceOnUse" gradientTransform="translate(30.9019 11.6233) rotate(90) scale(14.5275)">
<stop offset="0.145833" stop-color="#EC2D70"/>
<stop offset="1" stop-color="#4B1BA9" stop-opacity="0.25"/>
</radialGradient>
<radialGradient id="paint5_radial_2130_1341" cx="0" cy="0" r="1" gradientUnits="userSpaceOnUse" gradientTransform="translate(30.9019 40.6784) rotate(-90) scale(15.2539 15.91)">
<stop offset="0.0989583" stop-color="#27FB95"/>
<stop offset="1" stop-color="#5F22C3" stop-opacity="0.25"/>
</radialGradient>
<radialGradient id="paint6_radial_2130_1341" cx="0" cy="0" r="1" gradientUnits="userSpaceOnUse" gradientTransform="translate(15.7589 26.1508) scale(15.1557 15.2938)">
<stop stop-color="#D95E19"/>
<stop offset="1" stop-color="#651FF9" stop-opacity="0.25"/>
</radialGradient>
<radialGradient id="paint7_radial_2130_1341" cx="0" cy="0" r="1" gradientUnits="userSpaceOnUse" gradientTransform="translate(46.4154 26.1508) rotate(-180) scale(15.5136 16.9756)">
<stop stop-color="#46E5EB"/>
<stop offset="1" stop-color="#651FF9" stop-opacity="0"/>
</radialGradient>
<linearGradient id="paint8_linear_2130_1341" x1="40.6658" y1="23.7654" x2="15.469" y2="23.7654" gradientUnits="userSpaceOnUse">
<stop stop-color="#02301C"/>
<stop offset="1" stop-color="#953C75"/>
</linearGradient>
<clipPath id="clip0_2130_1341">
<rect width="147.826" height="61.9369" fill="white"/>
</clipPath>
</defs>
</svg>
