<svg width="699" height="293" viewBox="0 0 699 293" fill="none" xmlns="http://www.w3.org/2000/svg">
<g clip-path="url(#clip0_2242_2)">
<g filter="url(#filter0_d_2242_2)">
<circle cx="145.794" cy="123.652" r="61.9919" fill="#48258F"/>
<circle cx="145.794" cy="123.652" r="61.9919" fill="url(#paint0_radial_2242_2)"/>
<circle cx="145.794" cy="123.652" r="61.9919" fill="url(#paint1_radial_2242_2)"/>
<circle cx="145.794" cy="123.652" r="61.9919" fill="url(#paint2_radial_2242_2)"/>
<circle cx="145.794" cy="123.652" r="61.9919" fill="url(#paint3_radial_2242_2)"/>
<path fill-rule="evenodd" clip-rule="evenodd" d="M145.796 192.346C183.735 192.346 214.49 161.591 214.49 123.653C214.49 85.7142 183.735 54.959 145.796 54.959C107.858 54.959 77.1025 85.7142 77.1025 123.653C77.1025 161.591 107.858 192.346 145.796 192.346ZM145.796 189.499C182.162 189.499 211.642 160.018 211.642 123.653C211.642 87.2866 182.162 57.8062 145.796 57.8062C109.43 57.8062 79.9497 87.2866 79.9497 123.653C79.9497 160.018 109.43 189.499 145.796 189.499Z" fill="#48258F"/>
<path fill-rule="evenodd" clip-rule="evenodd" d="M145.796 192.346C183.735 192.346 214.49 161.591 214.49 123.653C214.49 85.7142 183.735 54.959 145.796 54.959C107.858 54.959 77.1025 85.7142 77.1025 123.653C77.1025 161.591 107.858 192.346 145.796 192.346ZM145.796 189.499C182.162 189.499 211.642 160.018 211.642 123.653C211.642 87.2866 182.162 57.8062 145.796 57.8062C109.43 57.8062 79.9497 87.2866 79.9497 123.653C79.9497 160.018 109.43 189.499 145.796 189.499Z" fill="url(#paint4_radial_2242_2)"/>
<path fill-rule="evenodd" clip-rule="evenodd" d="M145.796 192.346C183.735 192.346 214.49 161.591 214.49 123.653C214.49 85.7142 183.735 54.959 145.796 54.959C107.858 54.959 77.1025 85.7142 77.1025 123.653C77.1025 161.591 107.858 192.346 145.796 192.346ZM145.796 189.499C182.162 189.499 211.642 160.018 211.642 123.653C211.642 87.2866 182.162 57.8062 145.796 57.8062C109.43 57.8062 79.9497 87.2866 79.9497 123.653C79.9497 160.018 109.43 189.499 145.796 189.499Z" fill="url(#paint5_radial_2242_2)"/>
<path fill-rule="evenodd" clip-rule="evenodd" d="M145.796 192.346C183.735 192.346 214.49 161.591 214.49 123.653C214.49 85.7142 183.735 54.959 145.796 54.959C107.858 54.959 77.1025 85.7142 77.1025 123.653C77.1025 161.591 107.858 192.346 145.796 192.346ZM145.796 189.499C182.162 189.499 211.642 160.018 211.642 123.653C211.642 87.2866 182.162 57.8062 145.796 57.8062C109.43 57.8062 79.9497 87.2866 79.9497 123.653C79.9497 160.018 109.43 189.499 145.796 189.499Z" fill="url(#paint6_radial_2242_2)"/>
<path fill-rule="evenodd" clip-rule="evenodd" d="M145.796 192.346C183.735 192.346 214.49 161.591 214.49 123.653C214.49 85.7142 183.735 54.959 145.796 54.959C107.858 54.959 77.1025 85.7142 77.1025 123.653C77.1025 161.591 107.858 192.346 145.796 192.346ZM145.796 189.499C182.162 189.499 211.642 160.018 211.642 123.653C211.642 87.2866 182.162 57.8062 145.796 57.8062C109.43 57.8062 79.9497 87.2866 79.9497 123.653C79.9497 160.018 109.43 189.499 145.796 189.499Z" fill="url(#paint7_radial_2242_2)"/>
</g>
<path d="M163.254 121.825H181.205V156.128C176.596 159.591 171.259 162.248 165.195 164.1C159.13 165.952 153.026 166.878 146.88 166.878C138.067 166.878 130.142 165.026 123.108 161.322C116.073 157.537 110.534 152.344 106.491 145.741C102.529 139.057 100.548 131.528 100.548 123.154C100.548 114.78 102.529 107.291 106.491 100.688C110.534 94.0049 116.113 88.8112 123.229 85.1072C130.345 81.3226 138.35 79.4304 147.244 79.4304C154.683 79.4304 161.435 80.6785 167.499 83.1747C173.564 85.6709 178.658 89.2944 182.782 94.0452L170.168 105.64C164.103 99.2792 156.786 96.0985 148.214 96.0985C142.797 96.0985 137.986 97.2259 133.781 99.4805C129.576 101.735 126.302 104.916 123.957 109.022C121.612 113.129 120.439 117.84 120.439 123.154C120.439 128.388 121.612 133.058 123.957 137.165C126.302 141.272 129.536 144.493 133.66 146.828C137.864 149.082 142.635 150.21 147.972 150.21C153.632 150.21 158.726 149.002 163.254 146.586V121.825Z" fill="white"/>
<path d="M263.862 100.447V165.428H245.911V157.698C243.404 160.517 240.412 162.691 236.936 164.221C233.459 165.67 229.699 166.395 225.656 166.395C217.085 166.395 210.292 163.939 205.279 159.027C200.266 154.115 197.759 146.828 197.759 137.165V100.447H216.68V134.387C216.68 144.855 221.087 150.089 229.901 150.089C234.429 150.089 238.068 148.639 240.817 145.741C243.566 142.761 244.941 138.373 244.941 132.575V100.447H263.862Z" fill="white"/>
<path d="M281.391 100.447H300.312V165.428H281.391V100.447ZM290.851 91.388C287.374 91.388 284.544 90.3814 282.361 88.3684C280.178 86.3553 279.086 83.8591 279.086 80.8798C279.086 77.9004 280.178 75.4042 282.361 73.3912C284.544 71.3781 287.374 70.3716 290.851 70.3716C294.328 70.3716 297.158 71.3379 299.342 73.2704C301.525 75.2029 302.616 77.6186 302.616 80.5174C302.616 83.6578 301.525 86.2748 299.342 88.3684C297.158 90.3814 294.328 91.388 290.851 91.388Z" fill="white"/>
<path d="M359.96 162.288C358.1 163.657 355.795 164.704 353.046 165.428C350.378 166.073 347.548 166.395 344.556 166.395C336.793 166.395 330.769 164.422 326.484 160.476C322.279 156.531 320.177 150.733 320.177 143.083V116.39H310.11V101.896H320.177V86.0735H339.098V101.896H355.351V116.39H339.098V142.842C339.098 145.58 339.785 147.713 341.16 149.243C342.615 150.693 344.637 151.418 347.224 151.418C350.216 151.418 352.763 150.612 354.865 149.002L359.96 162.288Z" fill="white"/>
<path d="M396.901 99.4805C407.008 99.4805 414.771 101.896 420.188 106.728C425.606 111.478 428.315 118.685 428.315 128.348V165.428H410.606V157.336C407.048 163.375 400.418 166.395 390.715 166.395C385.702 166.395 381.335 165.549 377.616 163.858C373.977 162.167 371.187 159.832 369.247 156.853C367.306 153.873 366.336 150.491 366.336 146.707C366.336 140.668 368.6 135.917 373.128 132.454C377.737 128.992 384.812 127.261 394.354 127.261H409.393C409.393 123.154 408.14 120.014 405.633 117.84C403.127 115.585 399.367 114.458 394.354 114.458C390.877 114.458 387.44 115.021 384.044 116.149C380.729 117.195 377.899 118.645 375.554 120.497L368.762 107.331C372.319 104.835 376.564 102.903 381.497 101.534C386.51 100.165 391.645 99.4805 396.901 99.4805ZM395.445 153.712C398.68 153.712 401.55 152.988 404.057 151.538C406.563 150.008 408.342 147.794 409.393 144.895V138.252H396.415C388.653 138.252 384.772 140.789 384.772 145.861C384.772 148.277 385.702 150.21 387.561 151.659C389.502 153.028 392.13 153.712 395.445 153.712Z" fill="white"/>
<path d="M463.511 109.022C465.775 105.882 468.807 103.507 472.608 101.896C476.489 100.286 480.936 99.4805 485.95 99.4805V116.873C483.847 116.712 482.432 116.632 481.704 116.632C476.287 116.632 472.042 118.162 468.969 121.222C465.896 124.201 464.36 128.71 464.36 134.749V165.428H445.439V100.447H463.511V109.022Z" fill="white"/>
<path d="M563.074 75.8069V165.428H545.002V157.94C540.312 163.576 533.52 166.395 524.626 166.395C518.48 166.395 512.901 165.026 507.888 162.288C502.955 159.55 499.074 155.645 496.244 150.572C493.414 145.499 491.999 139.621 491.999 132.938C491.999 126.254 493.414 120.376 496.244 115.303C499.074 110.23 502.955 106.325 507.888 103.587C512.901 100.849 518.48 99.4805 524.626 99.4805C532.954 99.4805 539.463 102.097 544.153 107.331V75.8069H563.074ZM527.9 150.934C532.671 150.934 536.633 149.324 539.787 146.103C542.94 142.802 544.517 138.413 544.517 132.938C544.517 127.462 542.94 123.114 539.787 119.893C536.633 116.592 532.671 114.941 527.9 114.941C523.049 114.941 519.046 116.592 515.893 119.893C512.739 123.114 511.163 127.462 511.163 132.938C511.163 138.413 512.739 142.802 515.893 146.103C519.046 149.324 523.049 150.934 527.9 150.934Z" fill="white"/>
<path d="M611.636 166.395C604.763 166.395 598.577 164.986 593.079 162.167C587.661 159.268 583.416 155.283 580.344 150.21C577.271 145.137 575.735 139.379 575.735 132.938C575.735 126.496 577.271 120.738 580.344 115.666C583.416 110.593 587.661 106.647 593.079 103.829C598.577 100.93 604.763 99.4805 611.636 99.4805C618.509 99.4805 624.655 100.93 630.072 103.829C635.49 106.647 639.735 110.593 642.808 115.666C645.88 120.738 647.417 126.496 647.417 132.938C647.417 139.379 645.88 145.137 642.808 150.21C639.735 155.283 635.49 159.268 630.072 162.167C624.655 164.986 618.509 166.395 611.636 166.395ZM611.636 150.934C616.488 150.934 620.45 149.324 623.523 146.103C626.676 142.802 628.253 138.413 628.253 132.938C628.253 127.462 626.676 123.114 623.523 119.893C620.45 116.592 616.488 114.941 611.636 114.941C606.785 114.941 602.782 116.592 599.629 119.893C596.475 123.114 594.898 127.462 594.898 132.938C594.898 138.413 596.475 142.802 599.629 146.103C602.782 149.324 606.785 150.934 611.636 150.934Z" fill="white"/>
<g style="mix-blend-mode:screen" opacity="0.8" filter="url(#filter1_f_2242_2)">
<ellipse cx="146.113" cy="123.651" rx="93.8255" ry="37.1951" fill="url(#paint8_linear_2242_2)"/>
</g>
<path d="M256.412 201.454V225.849H224.211V201.454H229.822V221.249H237.523V201.454H243.134V221.249H250.801V201.454H256.412Z" fill="white"/>
<path d="M270.305 218.739H267.482V225.849H262.045V207.1H267.482V214.383H270.409L275.497 207.1H281.282L274.731 216.091L281.735 225.849H275.323L270.305 218.739Z" fill="white"/>
<path d="M292.608 226.128C290.634 226.128 288.856 225.721 287.277 224.908C285.72 224.071 284.5 222.921 283.617 221.458C282.734 219.994 282.293 218.333 282.293 216.474C282.293 214.616 282.734 212.954 283.617 211.491C284.5 210.027 285.72 208.889 287.277 208.076C288.856 207.239 290.634 206.821 292.608 206.821C294.583 206.821 296.349 207.239 297.906 208.076C299.462 208.889 300.682 210.027 301.565 211.491C302.448 212.954 302.889 214.616 302.889 216.474C302.889 218.333 302.448 219.994 301.565 221.458C300.682 222.921 299.462 224.071 297.906 224.908C296.349 225.721 294.583 226.128 292.608 226.128ZM292.608 221.667C294.002 221.667 295.141 221.202 296.024 220.273C296.93 219.32 297.383 218.054 297.383 216.474C297.383 214.894 296.93 213.64 296.024 212.71C295.141 211.758 294.002 211.282 292.608 211.282C291.215 211.282 290.064 211.758 289.158 212.71C288.252 213.64 287.799 214.894 287.799 216.474C287.799 218.054 288.252 219.32 289.158 220.273C290.064 221.202 291.215 221.667 292.608 221.667Z" fill="white"/>
<path d="M324.338 207.1V225.849H318.902V211.56H312.977L312.803 214.871C312.71 217.334 312.478 219.378 312.106 221.005C311.734 222.631 311.13 223.909 310.294 224.838C309.458 225.767 308.296 226.232 306.809 226.232C306.019 226.232 305.078 226.093 303.986 225.814L304.265 221.353C304.637 221.4 304.904 221.423 305.067 221.423C305.88 221.423 306.484 221.132 306.879 220.552C307.297 219.948 307.576 219.192 307.715 218.286C307.855 217.357 307.959 216.137 308.029 214.627L308.308 207.1H324.338Z" fill="white"/>
<path d="M336.85 206.821C339.754 206.821 341.984 207.518 343.541 208.912C345.098 210.283 345.876 212.362 345.876 215.15V225.849H340.788V223.514C339.766 225.256 337.861 226.128 335.073 226.128C333.632 226.128 332.378 225.884 331.309 225.396C330.263 224.908 329.462 224.234 328.904 223.374C328.347 222.515 328.068 221.539 328.068 220.447C328.068 218.705 328.718 217.334 330.019 216.335C331.344 215.336 333.377 214.836 336.118 214.836H340.439C340.439 213.651 340.079 212.745 339.359 212.118C338.639 211.468 337.559 211.142 336.118 211.142C335.119 211.142 334.132 211.305 333.156 211.63C332.203 211.932 331.39 212.35 330.716 212.885L328.765 209.086C329.787 208.366 331.007 207.808 332.424 207.413C333.864 207.018 335.34 206.821 336.85 206.821ZM336.432 222.468C337.361 222.468 338.186 222.259 338.906 221.841C339.626 221.4 340.137 220.761 340.439 219.924V218.008H336.711C334.48 218.008 333.365 218.739 333.365 220.203C333.365 220.9 333.632 221.458 334.167 221.876C334.724 222.271 335.479 222.468 336.432 222.468Z" fill="white"/>
<path d="M378.764 225.849V214.627L373.153 224.037H370.853L365.382 214.592V225.849H360.468V207.1H366.149L372.143 217.938L378.52 207.1H383.608L383.678 225.849H378.764Z" fill="white"/>
<path d="M407.669 207.1L399.201 226.999C398.341 229.159 397.272 230.681 395.995 231.564C394.74 232.447 393.218 232.888 391.429 232.888C390.454 232.888 389.489 232.737 388.537 232.435C387.584 232.133 386.806 231.715 386.202 231.181L388.188 227.312C388.607 227.684 389.083 227.975 389.617 228.184C390.175 228.393 390.721 228.497 391.255 228.497C391.999 228.497 392.603 228.311 393.067 227.94C393.532 227.591 393.95 226.999 394.322 226.162L394.392 225.988L386.272 207.1H391.882L397.145 219.82L402.442 207.1H407.669Z" fill="white"/>
<path d="M422.046 216.091C423.161 216.439 424.021 216.974 424.625 217.694C425.252 218.414 425.566 219.274 425.566 220.273C425.566 221.458 425.159 222.503 424.346 223.409C423.533 224.292 422.418 224.978 421.001 225.465C419.583 225.953 417.98 226.197 416.191 226.197C414.728 226.197 413.287 226.046 411.87 225.744C410.453 225.442 409.14 224.989 407.932 224.385L409.396 220.586C411.37 221.539 413.554 222.015 415.947 222.015C417.225 222.015 418.224 221.829 418.944 221.458C419.688 221.063 420.06 220.517 420.06 219.82C420.06 219.216 419.804 218.763 419.293 218.461C418.782 218.135 418.038 217.973 417.063 217.973H413.229V214.592H416.575C417.527 214.592 418.259 214.441 418.77 214.139C419.281 213.837 419.537 213.396 419.537 212.815C419.537 212.211 419.212 211.746 418.561 211.421C417.934 211.096 417.028 210.933 415.843 210.933C414.031 210.933 412.056 211.363 409.918 212.223L408.594 208.459C411.196 207.32 413.729 206.751 416.191 206.751C417.887 206.751 419.397 206.96 420.722 207.379C422.069 207.797 423.126 208.412 423.893 209.226C424.66 210.015 425.043 210.945 425.043 212.013C425.043 212.896 424.776 213.698 424.242 214.418C423.707 215.115 422.975 215.673 422.046 216.091Z" fill="white"/>
<path d="M439.383 213.094C441.822 213.117 443.669 213.663 444.924 214.732C446.178 215.8 446.806 217.334 446.806 219.332C446.806 221.423 446.097 223.038 444.68 224.176C443.263 225.314 441.253 225.884 438.651 225.884L429.52 225.849V207.1H434.922V213.094H439.383ZM448.827 207.1H454.229V225.849H448.827V207.1ZM438.163 222.015C439.209 222.039 440.01 221.818 440.568 221.353C441.125 220.888 441.404 220.192 441.404 219.262C441.404 218.356 441.125 217.694 440.568 217.276C440.033 216.858 439.232 216.637 438.163 216.614L434.922 216.579V222.015H438.163Z" fill="white"/>
<path d="M467.729 218.739H464.906V225.849H459.469V207.1H464.906V214.383H467.833L472.921 207.1H478.706L472.154 216.091L479.159 225.849H472.747L467.729 218.739Z" fill="white"/>
<path d="M481.829 207.1H487.23V218.252L496.361 207.1H501.344V225.849H495.943V214.697L486.847 225.849H481.829V207.1Z" fill="white"/>
</g>
<defs>
<filter id="filter0_d_2242_2" x="36.2214" y="29.4921" width="219.15" height="219.149" filterUnits="userSpaceOnUse" color-interpolation-filters="sRGB">
<feFlood flood-opacity="0" result="BackgroundImageFix"/>
<feColorMatrix in="SourceAlpha" type="matrix" values="0 0 0 0 0 0 0 0 0 0 0 0 0 0 0 0 0 0 127 0" result="hardAlpha"/>
<feOffset dy="15.4142"/>
<feGaussianBlur stdDeviation="20.4406"/>
<feComposite in2="hardAlpha" operator="out"/>
<feColorMatrix type="matrix" values="0 0 0 0 0.341176 0 0 0 0 0.12549 0 0 0 0 0.662745 0 0 0 0.56 0"/>
<feBlend mode="normal" in2="BackgroundImageFix" result="effect1_dropShadow_2242_2"/>
<feBlend mode="normal" in="SourceGraphic" in2="effect1_dropShadow_2242_2" result="shape"/>
</filter>
<filter id="filter1_f_2242_2" x="-37.5173" y="-3.34884" width="367.26" height="253.999" filterUnits="userSpaceOnUse" color-interpolation-filters="sRGB">
<feFlood flood-opacity="0" result="BackgroundImageFix"/>
<feBlend mode="normal" in="SourceGraphic" in2="BackgroundImageFix" result="shape"/>
<feGaussianBlur stdDeviation="44.9022" result="effect1_foregroundBlur_2242_2"/>
</filter>
<radialGradient id="paint0_radial_2242_2" cx="0" cy="0" r="1" gradientUnits="userSpaceOnUse" gradientTransform="translate(146.074 61.6602) rotate(90) scale(61.9919)">
<stop offset="0.145833" stop-color="#EC2D70"/>
<stop offset="1" stop-color="#4B1BA9" stop-opacity="0.25"/>
</radialGradient>
<radialGradient id="paint1_radial_2242_2" cx="0" cy="0" r="1" gradientUnits="userSpaceOnUse" gradientTransform="translate(146.074 185.644) rotate(-90) scale(65.0914 67.8909)">
<stop offset="0.0989583" stop-color="#27FB95"/>
<stop offset="1" stop-color="#5F22C3" stop-opacity="0.25"/>
</radialGradient>
<radialGradient id="paint2_radial_2242_2" cx="0" cy="0" r="1" gradientUnits="userSpaceOnUse" gradientTransform="translate(81.4561 123.652) scale(64.6726 65.2619)">
<stop stop-color="#D95E19"/>
<stop offset="1" stop-color="#651FF9" stop-opacity="0.25"/>
</radialGradient>
<radialGradient id="paint3_radial_2242_2" cx="0" cy="0" r="1" gradientUnits="userSpaceOnUse" gradientTransform="translate(212.274 123.652) rotate(-180) scale(66.1995 72.4383)">
<stop stop-color="#46E5EB"/>
<stop offset="1" stop-color="#651FF9" stop-opacity="0"/>
</radialGradient>
<radialGradient id="paint4_radial_2242_2" cx="0" cy="0" r="1" gradientUnits="userSpaceOnUse" gradientTransform="translate(146.107 54.959) rotate(90) scale(68.6937)">
<stop offset="0.145833" stop-color="#EC2D70"/>
<stop offset="1" stop-color="#4B1BA9" stop-opacity="0.25"/>
</radialGradient>
<radialGradient id="paint5_radial_2242_2" cx="0" cy="0" r="1" gradientUnits="userSpaceOnUse" gradientTransform="translate(146.107 192.346) rotate(-90) scale(72.1283 75.2305)">
<stop offset="0.0989583" stop-color="#27FB95"/>
<stop offset="1" stop-color="#5F22C3" stop-opacity="0.25"/>
</radialGradient>
<radialGradient id="paint6_radial_2242_2" cx="0" cy="0" r="1" gradientUnits="userSpaceOnUse" gradientTransform="translate(74.5033 123.653) scale(71.6642 72.3172)">
<stop stop-color="#D95E19"/>
<stop offset="1" stop-color="#651FF9" stop-opacity="0.25"/>
</radialGradient>
<radialGradient id="paint7_radial_2242_2" cx="0" cy="0" r="1" gradientUnits="userSpaceOnUse" gradientTransform="translate(219.463 123.653) rotate(-180) scale(73.3561 80.2694)">
<stop stop-color="#46E5EB"/>
<stop offset="1" stop-color="#651FF9" stop-opacity="0"/>
</radialGradient>
<linearGradient id="paint8_linear_2242_2" x1="192.281" y1="112.375" x2="73.1372" y2="112.375" gradientUnits="userSpaceOnUse">
<stop stop-color="#02301C"/>
<stop offset="1" stop-color="#953C75"/>
</linearGradient>
<clipPath id="clip0_2242_2">
<rect width="699" height="292.87" fill="white"/>
</clipPath>
</defs>
</svg>
